<svg width="100" height="100" viewBox="0 0 100 100" fill="none" xmlns="http://www.w3.org/2000/svg">
<rect width="100" height="100" rx="50" fill="#EEF4FF"/>
<path opacity="0.5" d="M38.3333 36C37.7145 36 37.121 35.7541 36.6834 35.3165C36.2458 34.879 36 34.2855 36 33.6666V29C36 28.3811 36.2458 27.7876 36.6834 27.35C37.121 26.9125 37.7145 26.6666 38.3333 26.6666C38.9522 26.6666 39.5457 26.9125 39.9832 27.35C40.4208 27.7876 40.6667 28.3811 40.6667 29V33.6666C40.6667 34.2851 40.4212 34.8782 39.9841 35.3157C39.547 35.7532 38.9541 35.9993 38.3357 36H38.3333ZM61.6667 36C61.0478 36 60.4543 35.7541 60.0167 35.3165C59.5792 34.879 59.3333 34.2855 59.3333 33.6666V29C59.3333 28.3811 59.5792 27.7876 60.0167 27.35C60.4543 26.9125 61.0478 26.6666 61.6667 26.6666C62.2855 26.6666 62.879 26.9125 63.3166 27.35C63.7542 27.7876 64 28.3811 64 29V33.6666C64 34.2851 63.7545 34.8782 63.3174 35.3157C62.8803 35.7532 62.2874 35.9993 61.669 36H61.6667Z" fill="#2D76F9"/>
<path d="M66.3333 31.3334H64V33.6667C64 34.2855 63.7541 34.879 63.3165 35.3166C62.879 35.7542 62.2855 36 61.6666 36C61.0478 36 60.4543 35.7542 60.0167 35.3166C59.5791 34.879 59.3333 34.2855 59.3333 33.6667V31.3334H40.6666V33.6667C40.6666 34.2855 40.4208 34.879 39.9832 35.3166C39.5456 35.7542 38.9521 36 38.3333 36C37.7145 36 37.121 35.7542 36.6834 35.3166C36.2458 34.879 36 34.2855 36 33.6667V31.3334H33.6666C31.8101 31.3334 30.0296 32.0709 28.7169 33.3836C27.4041 34.6964 26.6666 36.4769 26.6666 38.3334V43H73.3333V38.3334C73.3333 36.4769 72.5958 34.6964 71.283 33.3836C69.9703 32.0709 68.1898 31.3334 66.3333 31.3334V31.3334Z" fill="#2D76F9"/>
<path d="M38.3333 54.6667C39.622 54.6667 40.6667 53.622 40.6667 52.3333C40.6667 51.0447 39.622 50 38.3333 50C37.0447 50 36 51.0447 36 52.3333C36 53.622 37.0447 54.6667 38.3333 54.6667Z" fill="#2D76F9"/>
<path d="M38.3333 64C39.622 64 40.6667 62.9554 40.6667 61.6667C40.6667 60.378 39.622 59.3334 38.3333 59.3334C37.0447 59.3334 36 60.378 36 61.6667C36 62.9554 37.0447 64 38.3333 64Z" fill="#2D76F9"/>
<path d="M50 54.6667C51.2886 54.6667 52.3333 53.622 52.3333 52.3333C52.3333 51.0447 51.2886 50 50 50C48.7113 50 47.6666 51.0447 47.6666 52.3333C47.6666 53.622 48.7113 54.6667 50 54.6667Z" fill="#2D76F9"/>
<path d="M50 64C51.2886 64 52.3333 62.9554 52.3333 61.6667C52.3333 60.378 51.2886 59.3334 50 59.3334C48.7113 59.3334 47.6666 60.378 47.6666 61.6667C47.6666 62.9554 48.7113 64 50 64Z" fill="#2D76F9"/>
<path d="M61.6667 54.6667C62.9554 54.6667 64 53.622 64 52.3333C64 51.0447 62.9554 50 61.6667 50C60.378 50 59.3334 51.0447 59.3334 52.3333C59.3334 53.622 60.378 54.6667 61.6667 54.6667Z" fill="#2D76F9"/>
<path d="M61.6667 64C62.9554 64 64 62.9554 64 61.6667C64 60.378 62.9554 59.3334 61.6667 59.3334C60.378 59.3334 59.3334 60.378 59.3334 61.6667C59.3334 62.9554 60.378 64 61.6667 64Z" fill="#2D76F9"/>
<path opacity="0.5" d="M26.6666 43V66.3333C26.6666 68.1899 27.4041 69.9703 28.7169 71.2831C30.0296 72.5958 31.8101 73.3333 33.6666 73.3333H66.3333C68.1898 73.3333 69.9703 72.5958 71.283 71.2831C72.5958 69.9703 73.3333 68.1899 73.3333 66.3333V43H26.6666ZM38.3333 64C37.7145 64 37.121 63.7542 36.6834 63.3166C36.2458 62.879 36 62.2855 36 61.6667C36 61.0478 36.2458 60.4543 36.6834 60.0168C37.121 59.5792 37.7145 59.3333 38.3333 59.3333C38.9521 59.3333 39.5456 59.5792 39.9832 60.0168C40.4208 60.4543 40.6666 61.0478 40.6666 61.6667C40.6666 62.2855 40.4208 62.879 39.9832 63.3166C39.5456 63.7542 38.9521 64 38.3333 64ZM38.3333 54.6667C37.7145 54.6667 37.121 54.4208 36.6834 53.9832C36.2458 53.5457 36 52.9522 36 52.3333C36 51.7145 36.2458 51.121 36.6834 50.6834C37.121 50.2458 37.7145 50 38.3333 50C38.9521 50 39.5456 50.2458 39.9832 50.6834C40.4208 51.121 40.6666 51.7145 40.6666 52.3333C40.6666 52.9522 40.4208 53.5457 39.9832 53.9832C39.5456 54.4208 38.9521 54.6667 38.3333 54.6667ZM50 64C49.3811 64 48.7876 63.7542 48.35 63.3166C47.9125 62.879 47.6666 62.2855 47.6666 61.6667C47.6666 61.0478 47.9125 60.4543 48.35 60.0168C48.7876 59.5792 49.3811 59.3333 50 59.3333C50.6188 59.3333 51.2123 59.5792 51.6499 60.0168C52.0875 60.4543 52.3333 61.0478 52.3333 61.6667C52.3333 62.2855 52.0875 62.879 51.6499 63.3166C51.2123 63.7542 50.6188 64 50 64ZM50 54.6667C49.3811 54.6667 48.7876 54.4208 48.35 53.9832C47.9125 53.5457 47.6666 52.9522 47.6666 52.3333C47.6666 51.7145 47.9125 51.121 48.35 50.6834C48.7876 50.2458 49.3811 50 50 50C50.6188 50 51.2123 50.2458 51.6499 50.6834C52.0875 51.121 52.3333 51.7145 52.3333 52.3333C52.3333 52.9522 52.0875 53.5457 51.6499 53.9832C51.2123 54.4208 50.6188 54.6667 50 54.6667ZM61.6666 64C61.0478 64 60.4543 63.7542 60.0167 63.3166C59.5791 62.879 59.3333 62.2855 59.3333 61.6667C59.3333 61.0478 59.5791 60.4543 60.0167 60.0168C60.4543 59.5792 61.0478 59.3333 61.6666 59.3333C62.2855 59.3333 62.879 59.5792 63.3165 60.0168C63.7541 60.4543 64 61.0478 64 61.6667C64 62.2855 63.7541 62.879 63.3165 63.3166C62.879 63.7542 62.2855 64 61.6666 64ZM61.6666 54.6667C61.0478 54.6667 60.4543 54.4208 60.0167 53.9832C59.5791 53.5457 59.3333 52.9522 59.3333 52.3333C59.3333 51.7145 59.5791 51.121 60.0167 50.6834C60.4543 50.2458 61.0478 50 61.6666 50C62.2855 50 62.879 50.2458 63.3165 50.6834C63.7541 51.121 64 51.7145 64 52.3333C64 52.9522 63.7541 53.5457 63.3165 53.9832C62.879 54.4208 62.2855 54.6667 61.6666 54.6667Z" fill="#2D76F9"/>
</svg>
