<svg width="50" height="50" viewBox="0 0 50 50" fill="none" xmlns="http://www.w3.org/2000/svg">
<rect x="0.75" y="0.75" width="48.5" height="48.5" rx="4.25" stroke="#2D76F9" stroke-width="1.5"/>
<path fill-rule="evenodd" clip-rule="evenodd" d="M13 16C12.7348 16 12.4804 16.1054 12.2929 16.2929C12.1054 16.4804 12 16.7348 12 17C12 17.2652 12.1054 17.5196 12.2929 17.7071C12.4804 17.8946 12.7348 18 13 18H37C37.2652 18 37.5196 17.8946 37.7071 17.7071C37.8946 17.5196 38 17.2652 38 17C38 16.7348 37.8946 16.4804 37.7071 16.2929C37.5196 16.1054 37.2652 16 37 16H13ZM12 25C12 24.7348 12.1054 24.4804 12.2929 24.2929C12.4804 24.1054 12.7348 24 13 24H37C37.2652 24 37.5196 24.1054 37.7071 24.2929C37.8946 24.4804 38 24.7348 38 25C38 25.2652 37.8946 25.5196 37.7071 25.7071C37.5196 25.8946 37.2652 26 37 26H13C12.7348 26 12.4804 25.8946 12.2929 25.7071C12.1054 25.5196 12 25.2652 12 25ZM12 33C12 32.7348 12.1054 32.4804 12.2929 32.2929C12.4804 32.1054 12.7348 32 13 32H37C37.2652 32 37.5196 32.1054 37.7071 32.2929C37.8946 32.4804 38 32.7348 38 33C38 33.2652 37.8946 33.5196 37.7071 33.7071C37.5196 33.8946 37.2652 34 37 34H13C12.7348 34 12.4804 33.8946 12.2929 33.7071C12.1054 33.5196 12 33.2652 12 33Z" fill="#2D76F9"/>
</svg>
