<svg width="112" height="16" viewBox="0 0 112 16" fill="none" xmlns="http://www.w3.org/2000/svg">
<path d="M9.26776 11.7333L14.9983 15.3333L12.805 9.52L18.5355 6H11.5075L9.26776 0L7.02805 6H0L5.73056 9.52L3.53719 15.3333L9.26776 11.7333Z" fill="#FBB667"/>
<path d="M32.4372 11.7333L38.1678 15.3333L35.9744 9.52L41.705 6H34.6769L32.4372 0L30.1975 6H23.1694L28.9 9.52L26.7066 15.3333L32.4372 11.7333Z" fill="#FBB667"/>
<path d="M55.6066 11.7333L61.3371 15.3333L59.1438 9.52L64.8743 6H57.8463L55.6066 0L53.3669 6H46.3388L52.0694 9.52L49.876 15.3333L55.6066 11.7333Z" fill="#FBB667"/>
<path d="M78.7759 11.7333L84.5065 15.3333L82.3131 9.52L88.0437 6H81.0156L78.7759 0L76.5362 6H69.5082L75.2387 9.52L73.0454 15.3333L78.7759 11.7333Z" fill="#FBB667"/>
<path d="M101.945 11.7333L107.676 15.3333L105.483 9.52L111.213 6H104.185L101.945 0L99.7057 6H92.6776L98.4082 9.52L96.2148 15.3333L101.945 11.7333Z" fill="#FBB667"/>
</svg>
