<svg width="704" height="425" viewBox="0 0 704 425" fill="none" xmlns="http://www.w3.org/2000/svg">
<path d="M29.7436 340.138C29.7436 340.138 -50.283 388.81 52.1973 393.247C154.678 397.683 91.8171 440.449 237.41 417.583C383.002 394.717 521.511 439.967 521.585 392.512C521.585 392.512 612.531 422.07 617.893 385.135C617.893 385.135 688.451 401.967 662.111 373.271C635.772 344.574 138.077 257.699 89.284 288.956C40.4909 320.213 11.4954 321.227 29.7436 340.138Z" fill="#8CB7EA"/>
<path d="M700.915 294.347C691.831 341.267 660.663 373.717 660.663 373.717L224.636 373.853L105.131 373.88L21.1189 373.907C12.6061 358.376 8.49933 345.456 7.43863 334.249C7.16666 331.502 7.08507 328.864 7.16666 326.307C7.16666 326.225 7.16666 326.171 7.16666 326.089C7.35704 320.976 8.17296 316.216 9.45123 311.701C11.0015 306.315 13.2317 301.283 15.8154 296.387C16.4137 295.272 17.0393 294.157 17.6648 293.041C21.3636 286.622 25.6336 280.393 29.7676 273.947C34.0376 267.31 38.1716 260.401 41.4353 252.758C42.9311 249.222 44.2638 245.523 45.2973 241.633C46.6571 236.601 47.5546 231.243 47.8538 225.422C47.9626 223.328 47.9898 221.152 47.9354 218.921C47.9354 218.459 47.9082 217.969 47.881 217.507C47.6634 211.741 46.8475 205.539 45.3245 198.848C45.1069 197.923 44.8893 196.971 44.6445 196.019C44.4813 195.366 44.3182 194.686 44.1278 194.006C42.8495 189.165 41.7888 184.432 40.9185 179.753C40.4561 177.197 40.0482 174.64 39.6946 172.11C39.4498 170.369 39.2595 168.629 39.0691 166.888C22.2612 4.53092 265.949 -54.5203 338.892 58.0877C395.272 145.128 461.497 158.075 484.479 143.305C538.411 108.598 611.953 102.75 674.996 188.267C703.309 226.483 706.871 263.529 700.915 294.347Z" fill="#FFEDC5"/>
<path opacity="0.5" d="M281.342 373.064L104.859 373.798L20.8468 373.635C12.3613 358.076 8.30887 345.156 7.27537 333.95C7.0306 331.203 6.949 328.564 7.0306 326.008C7.0306 325.926 7.0306 325.872 7.0306 325.79L15.7609 296.115C16.3593 295 16.9848 293.884 17.6375 292.769C21.3636 286.35 25.6335 280.148 29.7947 273.702C34.0647 267.065 38.2259 260.184 41.4896 252.54C43.0126 249.004 44.3181 245.332 45.3788 241.416C46.7386 236.384 47.6633 231.025 47.9897 225.204C48.0985 223.11 48.1529 220.934 48.0985 218.731C48.0985 218.268 48.0713 217.779 48.0441 217.316C52.6133 210.489 57.6176 203.39 62.4315 197.27C69.8291 187.886 76.7645 180.868 80.98 180.896C87.6434 180.95 93.5996 196.862 99.5014 210.707C104.832 223.164 110.136 233.908 115.929 229.964C123.816 224.579 136.87 187.26 150.224 161.828C157.622 147.766 165.101 137.348 171.873 138.001C176.85 138.491 182.045 144.393 187.403 153.016C202.362 177.169 218.435 222.702 234.21 230.236C255.641 240.464 281.342 373.064 281.342 373.064Z" fill="#C2D9FF"/>
<path d="M700.915 294.347C697.298 313.115 690.118 329.571 682.829 342.545C671.896 362.021 660.663 373.717 660.663 373.717L584.375 373.744L21.1189 373.907C12.6061 358.376 8.49933 345.456 7.43863 334.249C7.16666 331.502 7.08507 328.864 7.16666 326.307C7.32984 321.112 8.14577 316.27 9.47843 311.701C11.3822 305.064 14.3195 298.971 17.7192 293.041C31.481 293.069 56.9649 295 83.3463 306.614C122.483 323.832 167.794 350.433 264.045 332.481C360.296 314.502 435.796 289.859 481.623 310.64C527.451 331.393 576.433 333.161 608.526 312.843C635.179 295.979 675.023 284.745 700.915 294.347Z" fill="#AECBF4"/>
<path d="M295.458 153.07C295.458 150.105 293.064 147.712 290.1 147.712C287.135 147.712 284.742 150.105 284.742 153.07C284.742 156.035 287.135 158.429 290.1 158.429C293.064 158.429 295.458 156.035 295.458 153.07Z" fill="#415DA5"/>
<path d="M299.08 127.25L289.985 152.594L290.676 152.843L299.771 127.498L299.08 127.25Z" fill="#415DA5"/>
<path d="M315.774 164.494L316.046 163.814L290.318 152.771L273.428 128.617L272.83 129.025L289.855 153.369L289.937 153.397L315.774 164.494Z" fill="#415DA5"/>
<path d="M300.299 181.005L300.979 180.787C300.789 180.243 290.861 154.077 290.426 152.961L290.182 152.281L274.162 177.632L274.788 178.013L290.046 153.886C293.663 163.461 300.163 180.597 300.299 181.005Z" fill="#415DA5"/>
<path d="M318.565 145.958L290.019 150.868L290.144 151.591L318.689 146.681L318.565 145.958Z" fill="#415DA5"/>
<path d="M280.271 125.866L279.574 126.098L287.933 151.18L288.63 150.948L280.271 125.866Z" fill="#415DA5"/>
<path d="M290.154 153.451L290.263 153.397L316.427 140.123L316.101 139.47L290.046 152.689L261.978 147.984L261.842 148.691L290.154 153.451Z" fill="#415DA5"/>
<path d="M279.52 180.107C279.683 179.644 286.401 163.107 290.154 153.859L304.678 176.734L305.303 176.353L290.018 152.308L289.746 152.961C289.311 154.049 279.003 179.345 278.84 179.889L279.52 180.107Z" fill="#415DA5"/>
<path d="M290.145 152.733L290.037 153.46L318.229 157.65L318.337 156.924L290.145 152.733Z" fill="#415DA5"/>
<path d="M306.908 130.846L291.266 148.854L291.82 149.335L307.462 131.328L306.908 130.846Z" fill="#415DA5"/>
<path d="M289.555 155.046L288.824 155.106L291.007 181.482L291.739 181.421L289.555 155.046Z" fill="#415DA5"/>
<path d="M291.172 151.341L266.251 168.622L266.67 169.226L291.591 151.945L291.172 151.341Z" fill="#415DA5"/>
<path d="M310.743 172.6L311.259 172.083L290.454 151.112V123.803H289.719V151.411L310.743 172.6Z" fill="#415DA5"/>
<path d="M274.19 180.216C269.539 177.469 265.622 173.552 262.903 168.873C260.129 164.086 258.66 158.619 258.66 153.07C258.66 135.717 272.775 121.6 290.127 121.6C307.479 121.6 321.594 135.717 321.594 153.07C321.594 170.424 307.479 184.541 290.127 184.541C284.497 184.541 278.976 183.045 274.19 180.216ZM263.011 153.07C263.011 157.857 264.29 162.563 266.683 166.67C269.022 170.696 272.395 174.069 276.42 176.435C280.554 178.856 285.286 180.161 290.127 180.161C305.058 180.161 317.216 168.003 317.216 153.07C317.216 138.137 305.058 125.979 290.127 125.979C275.196 125.979 263.011 138.137 263.011 153.07Z" fill="#2C3A64"/>
<path d="M366.214 99.0954L347.73 156.922L350.838 157.916L369.323 100.089L366.214 99.0954Z" fill="#739CF3"/>
<path d="M352.409 158.102L396.033 154.294L315.121 99.5951L319.745 109.061L386.569 151.846L352.137 154.838L352.409 158.102Z" fill="#739CF3"/>
<path d="M346.534 155.545L349.281 153.75L315.72 99.9758L311.803 104.029L346.534 155.545Z" fill="#739CF3"/>
<path d="M292.684 151.629L311.368 111.617L308.866 110.611C307.234 109.958 305.385 110.747 304.732 112.379L289.638 150.377L292.684 151.629Z" fill="#415DA5"/>
<path d="M311.395 111.617C314.088 104.6 318.63 93.5566 318.548 93.6654L315.829 91.843C315.693 92.0334 315.611 92.1694 308.513 110.584L311.395 111.617Z" fill="#415DA5"/>
<path d="M327.088 97.5006C328.149 96.0046 327.823 93.9374 326.327 92.8766C324.831 91.8158 322.764 92.1422 321.703 93.6382C320.643 95.1342 320.969 97.2014 322.465 98.2622C323.933 99.323 326.028 98.9966 327.088 97.5006Z" fill="#415DA5"/>
<path d="M314.523 88.7967C315.584 87.3007 315.258 85.2335 313.762 84.1727C312.266 83.1119 310.199 83.4383 309.138 84.9343C308.077 86.4303 308.404 88.4975 309.9 89.5583C311.368 90.6463 313.463 90.2927 314.523 88.7967Z" fill="#415DA5"/>
<path d="M311.287 89.9936L323.961 98.0448L325.728 94.5904L313.054 86.512L311.287 89.9936Z" fill="#415DA5"/>
<path d="M332.147 165.8H339.245C340.089 165.8 340.769 165.12 340.769 164.277C340.769 163.434 340.089 162.754 339.245 162.754H332.147C331.304 162.754 330.624 163.434 330.624 164.277C330.624 165.12 331.331 165.8 332.147 165.8Z" fill="#415DA5"/>
<path d="M349.469 156.248L335.114 162.79L335.644 163.954L349.999 157.411L349.469 156.248Z" fill="#415DA5"/>
<path d="M396.659 153.07C396.659 150.105 394.266 147.712 391.301 147.712C388.337 147.712 385.943 150.105 385.943 153.07C385.943 156.035 388.337 158.429 391.301 158.429C394.266 158.429 396.659 156.035 396.659 153.07Z" fill="#415DA5"/>
<path d="M400.291 127.262L391.195 152.607L391.886 152.855L400.982 127.51L400.291 127.262Z" fill="#415DA5"/>
<path d="M416.975 164.494L417.274 163.814L391.546 152.771L374.629 128.617L374.031 129.025L391.056 153.369L391.165 153.397L416.975 164.494Z" fill="#415DA5"/>
<path d="M401.5 181.005L402.18 180.787C401.99 180.243 392.063 154.077 391.627 152.961L391.383 152.281L375.363 177.632L375.989 178.013L391.247 153.886C394.864 163.461 401.364 180.597 401.5 181.005Z" fill="#415DA5"/>
<path d="M419.763 145.958L391.217 150.868L391.342 151.592L419.887 146.682L419.763 145.958Z" fill="#415DA5"/>
<path d="M381.473 125.877L380.776 126.11L389.135 151.192L389.832 150.96L381.473 125.877Z" fill="#415DA5"/>
<path d="M391.355 153.451L391.464 153.397L417.655 140.123L417.329 139.47L391.247 152.689L363.179 147.984L363.07 148.691L391.355 153.451Z" fill="#415DA5"/>
<path d="M380.749 180.107C380.912 179.644 387.63 163.107 391.383 153.859L405.906 176.734L406.532 176.353L391.247 152.308L390.975 152.961C390.54 154.049 380.232 179.345 380.069 179.889L380.749 180.107Z" fill="#415DA5"/>
<path d="M391.356 152.675L391.248 153.402L419.443 157.587L419.55 156.86L391.356 152.675Z" fill="#415DA5"/>
<path d="M408.131 130.838L392.489 148.845L393.043 149.327L408.685 131.319L408.131 130.838Z" fill="#415DA5"/>
<path d="M390.758 155.047L390.026 155.107L392.21 181.483L392.942 181.422L390.758 155.047Z" fill="#415DA5"/>
<path d="M392.402 151.337L367.481 168.618L367.899 169.221L392.82 151.94L392.402 151.337Z" fill="#415DA5"/>
<path d="M411.944 172.6L412.461 172.083L391.655 151.112V123.803H390.948V151.411L411.944 172.6Z" fill="#415DA5"/>
<path d="M375.391 180.216C370.74 177.469 366.823 173.552 364.104 168.873C361.33 164.086 359.861 158.619 359.861 153.07C359.861 135.717 373.976 121.6 391.328 121.6C408.68 121.6 422.795 135.717 422.795 153.07C422.795 170.424 408.68 184.541 391.328 184.541C385.698 184.541 380.204 183.045 375.391 180.216ZM364.212 153.07C364.212 157.857 365.491 162.563 367.884 166.67C370.223 170.696 373.596 174.069 377.621 176.435C381.755 178.856 386.487 180.161 391.328 180.161C406.259 180.161 418.417 168.003 418.417 153.07C418.417 138.137 406.259 125.979 391.328 125.979C376.397 125.979 364.212 138.137 364.212 153.07Z" fill="#2C3A64"/>
<path d="M365.681 120.784C366.144 120.947 366.66 120.893 367.068 120.648C381.782 111.753 402.153 115.099 408.027 116.323C408.354 116.405 408.653 116.133 408.653 115.806V114.664C408.653 113.793 408 113.032 407.13 112.896C403.948 112.433 396.496 111.4 392.335 111.373C392.226 111.373 392.117 111.373 392.008 111.373C382.679 111.373 374.656 113.032 368.047 116.323C366.688 117.003 365.137 117.085 363.723 116.595L361.901 115.969C360.867 115.616 359.725 116.16 359.371 117.193C359.127 117.873 359.48 118.608 360.16 118.825L365.681 120.784Z" fill="#D57912"/>
<path d="M379.361 98.371C379.361 98.371 379.96 95.6782 378.274 95.515C376.587 95.3246 370.468 96.6574 368.809 96.467C367.15 96.2766 358.637 94.8894 357.114 96.331C355.618 97.7726 356.244 99.051 359.263 99.323C362.254 99.595 366.252 100.085 367.395 101.064C368.537 102.016 376.75 104.845 379.361 98.371Z" fill="#415DA5"/>
<path d="M357.495 157.422C357.495 152.907 353.823 149.235 349.308 149.235C344.794 149.235 341.122 152.907 341.122 157.422C341.122 161.938 344.794 165.61 349.308 165.61C353.823 165.61 357.495 161.965 357.495 157.422Z" fill="#2C3A64"/>
<path d="M528.974 184.541H527.342V180.76C527.342 175.701 523.208 171.566 518.149 171.566H282.267C277.208 171.566 273.074 175.701 273.074 180.76V183.181H271.443V180.76C271.443 174.776 276.311 169.934 282.267 169.934H518.149C524.133 169.934 528.974 174.803 528.974 180.76V184.541Z" fill="#2C3A64"/>
<path d="M302.056 183.181H356.696V138.138H302.056V183.181Z" fill="#D3671E"/>
<path d="M329.377 183.181H384.016V138.138H329.377V183.181Z" fill="#F1A34F"/>
<path d="M302.094 171.757H310.743L309.981 169.309L310.743 167.568H302.094V171.757Z" fill="#F1A34F"/>
<path d="M358.284 138.11H354.694V183.344H358.284V138.11Z" fill="#E58628"/>
<path d="M329.291 158.701H302.067V162.264H329.291V158.701Z" fill="#C15911"/>
<path d="M384.393 158.701H329.373V162.264H384.393V158.701Z" fill="#E58628"/>
<path d="M349.907 113.168H319.527V138.219H349.907V113.168Z" fill="#D3671E"/>
<path d="M365.11 113.168H334.731V138.219H365.11V113.168Z" fill="#F1A34F"/>
<path d="M319.555 131.854H324.369L323.933 130.521L324.369 129.542H319.555V131.854Z" fill="#F1A34F"/>
<path d="M350.777 113.168H348.792V138.328H350.777V113.168Z" fill="#E58628"/>
<path d="M334.676 124.619H319.527V126.605H334.676V124.619Z" fill="#C15911"/>
<path d="M365.328 124.619H334.731V126.605H365.328V124.619Z" fill="#E58628"/>
<path d="M373.269 182.773L369.842 183.534L358.8 138.219L358.556 137.24L351.348 126.577L350.804 125.789L349.988 124.619L349.934 124.51L348.792 122.851L342.237 113.168H346.453L348.792 116.622L349.934 118.281L350.804 119.587L354.204 124.619L355.537 126.577L361.846 135.88L361.928 136.179L362.418 138.219L373.269 182.773Z" fill="#2C3A64"/>
<path d="M524.459 179.862C523.235 180.025 522.011 180.189 520.787 180.352C516.708 180.869 512.547 181.304 508.331 181.603C507.053 181.712 505.802 181.793 504.523 181.848C498.458 182.201 492.312 182.337 486.138 182.147C479.638 181.957 473.274 181.603 467.154 181.086C465.767 180.977 464.38 180.841 462.993 180.705C421.952 176.68 391.791 165.501 392.144 153.179C392.416 143.849 410.149 136.125 436.693 132.181C437.89 131.99 439.114 131.827 440.338 131.664H440.365C451.135 130.249 463.211 129.433 476.075 129.379C477.38 129.379 478.713 129.379 480.019 129.379C482.521 129.406 485.05 129.433 487.607 129.515C489.538 129.569 491.469 129.651 493.372 129.76C494.732 129.841 496.119 129.923 497.479 130.032C545.809 133.894 587.937 154.974 588.971 158.673C590.086 162.617 561.094 174.694 524.459 179.862Z" fill="#ABDDDA"/>
<path d="M588.971 158.701L511.839 156.552L507.841 156.443L494.488 156.062L490.49 155.953L452.957 154.893L448.959 154.784L392.171 153.206C392.443 143.877 410.176 136.152 436.721 132.208C437.917 132.017 439.141 131.854 440.365 131.691H440.392C451.162 130.277 463.238 129.461 476.102 129.406C477.408 129.406 478.74 129.406 480.046 129.406C482.548 129.433 485.077 129.461 487.634 129.542C489.565 129.597 491.496 129.678 493.4 129.787C494.76 129.869 496.147 129.95 497.507 130.059C545.809 133.921 587.937 155.001 588.971 158.701Z" fill="#91CECF"/>
<path d="M436.693 132.208L448.932 154.784L449.558 155.953L462.993 180.733L463.591 181.848L465.468 185.302L468.541 183.67L467.426 181.603L467.154 181.113L453.556 156.062L452.93 154.893L440.365 131.691L436.693 132.208Z" fill="#2C3A64"/>
<path d="M526.553 183.67L523.48 185.275L521.603 181.848L520.787 180.325L507.814 156.416L507.542 155.926L493.345 129.76C494.705 129.841 496.092 129.923 497.452 130.032L511.54 156.035L511.812 156.525L524.459 179.835L525.411 181.576L526.553 183.67Z" fill="#2C3A64"/>
<path opacity="0.7" d="M171.629 101.934C171.629 101.934 177.286 94.3181 190.776 95.1613C190.776 95.1613 210.385 82.4861 231.272 93.4749C231.272 93.4749 253.492 90.7549 269.947 95.8413C280.907 99.2413 284.552 102.777 284.552 102.777L171.629 101.934Z" fill="#F8FCFF"/>
<path opacity="0.7" d="M88.7856 67.8798C88.7856 67.8798 96.836 57.9246 116.037 59.0126C116.037 59.0126 143.942 42.3934 173.696 56.8094C173.696 56.8094 205.326 53.2462 228.743 59.9102C244.354 64.3438 249.522 68.995 249.522 68.995L88.7856 67.8798Z" fill="#F8FCFF"/>
<path d="M224.636 42.0398C228.947 42.0398 232.442 38.5448 232.442 34.2334C232.442 29.922 228.947 26.427 224.636 26.427C220.325 26.427 216.831 29.922 216.831 34.2334C216.831 38.5448 220.325 42.0398 224.636 42.0398Z" fill="#F8FBFF"/>
<path d="M224.636 373.907H21.1189C12.6061 358.376 8.49933 345.456 7.43863 334.249C7.16666 331.502 7.08507 328.864 7.16666 326.307C7.32984 321.112 8.14577 316.27 9.47843 311.701C11.3822 305.064 14.3195 298.971 17.7192 293.041C21.418 286.622 25.688 280.393 29.822 273.947C29.822 273.947 53.3205 259.286 85.3861 268.045C117.479 276.803 103.282 297.393 109.619 306.614C115.956 315.808 126.073 310.422 141.276 316.923C156.48 323.424 153.107 353.425 159.009 355.085C164.911 356.744 223.385 356.798 224.609 373.825C224.636 373.853 224.636 373.88 224.636 373.907Z" fill="#A8D29F"/>
<path d="M206.903 257.3V270.955C206.903 272.179 207.203 273.348 207.719 274.382C208.97 276.884 211.581 278.625 214.573 278.625H217.021C221.209 278.625 224.663 275.198 224.663 270.982V257.328C224.663 255.886 224.255 254.553 223.548 253.411C223.548 253.384 223.548 253.384 223.548 253.384C222.188 251.153 219.768 249.684 217.021 249.684H214.573C210.33 249.657 206.903 253.112 206.903 257.3Z" fill="#2B478B"/>
<path opacity="0.3" d="M207.692 274.382C208.943 276.884 211.554 278.625 214.546 278.625H216.994C221.182 278.625 224.636 275.198 224.636 270.982V257.328C224.636 255.886 224.228 254.553 223.521 253.411C223.385 254.227 220.149 272.968 207.692 274.382Z" fill="#2B478B"/>
<path d="M328.176 357.261H290.372V319.099H329.808L328.176 357.261Z" fill="#0C2544"/>
<path d="M213.676 270.547L394.728 281.155V183.181H272.721C261.08 183.181 250.446 189.681 245.143 200.045L237.147 215.63L213.676 270.547Z" fill="#FBB667"/>
<path d="M314.496 351.059C314.496 361.422 309.138 372.846 309.138 372.846C309.138 372.846 301.196 372.846 300.081 372.846C292.14 372.846 285.694 363.081 285.694 351.059C285.694 339.037 301.196 329.272 309.138 329.272C317.08 329.272 314.496 339.009 314.496 351.059Z" fill="#163560"/>
<path d="M309.138 372.846C317.084 372.846 323.525 363.092 323.525 351.059C323.525 339.026 317.084 329.272 309.138 329.272C301.192 329.272 294.751 339.026 294.751 351.059C294.751 363.092 301.192 372.846 309.138 372.846Z" fill="#2B478B"/>
<path d="M316.237 351.059C316.237 357.152 312.973 362.102 308.948 362.102C304.923 362.102 301.659 357.152 301.659 351.059C301.659 344.966 304.923 340.016 308.948 340.016C312.973 340.016 316.237 344.966 316.237 351.059Z" fill="#DFEBFD"/>
<path d="M210.466 351.059C210.466 361.422 205.108 372.846 205.108 372.846C205.108 372.846 197.167 372.846 196.052 372.846C188.11 372.846 181.664 363.081 181.664 351.059C181.664 339.037 197.167 329.272 205.108 329.272C213.05 329.272 210.466 339.009 210.466 351.059Z" fill="#163560"/>
<path d="M205.108 372.846C213.054 372.846 219.496 363.092 219.496 351.059C219.496 339.026 213.054 329.272 205.108 329.272C197.163 329.272 190.721 339.026 190.721 351.059C190.721 363.092 197.163 372.846 205.108 372.846Z" fill="#163560"/>
<path d="M449.34 351.059C449.34 361.422 443.982 372.846 443.982 372.846C443.982 372.846 436.041 372.846 434.925 372.846C426.984 372.846 420.538 363.081 420.538 351.059C420.538 339.037 436.041 329.272 443.982 329.272C451.951 329.272 449.34 339.009 449.34 351.059Z" fill="#163560"/>
<path d="M458.397 351.059C458.397 363.081 451.951 372.846 444.009 372.846C436.068 372.846 429.622 363.081 429.622 351.059C429.622 339.037 436.068 329.272 444.009 329.272C451.951 329.272 458.397 339.009 458.397 351.059Z" fill="#163560"/>
<path d="M167.331 338.547C167.304 347.659 174.702 355.03 183.786 355.03H290.372C290.073 353.235 289.91 351.385 289.91 349.481C289.91 335.392 298.368 323.968 308.757 323.968C319.174 323.968 327.632 335.392 327.632 349.481C327.632 351.385 327.795 353.072 327.496 354.84L389.452 355.03C389.452 355.03 391.954 327.232 391.655 313.278C391.41 301.147 391.41 277.374 392.117 271.553C392.117 270.683 332.065 270.574 316.916 270.52C314.849 270.493 313.626 270.493 313.49 270.493L313.272 270.629L313.054 270.792C310.253 272.75 294.588 283.739 284.851 290.158C276.284 295.816 212.968 298.128 188.137 298.808C181.964 298.971 178.156 299.025 178.156 299.025C178.156 299.025 174.756 302.507 171.765 308.001C169.453 312.272 167.413 317.739 167.359 323.723C167.331 327.449 167.304 331.937 167.304 336.344C167.331 337.105 167.331 337.84 167.331 338.547Z" fill="#FBB667"/>
<path d="M223.929 272.75L306.881 270.955C308.812 270.955 309.954 270.874 310.743 269.133L332.555 223.872C333.235 222.376 332.12 220.662 330.488 220.662H242.396C240.465 220.662 238.697 221.805 237.908 223.6L223.113 257.437L219.414 265.896C218.027 269.133 220.366 272.75 223.929 272.75Z" fill="#DCEAFF"/>
<path d="M556.198 183.181H375.636V357.288H556.198V183.181Z" fill="#E89F56"/>
<path d="M262.821 338.602C262.848 340.043 262.903 341.403 262.984 342.6C263.583 350.597 271.633 357.234 271.633 357.234H290.399C290.1 355.438 289.937 353.589 289.937 351.685C289.937 346.897 290.916 342.41 292.602 338.574C295.92 331.122 301.931 326.144 308.785 326.144C315.665 326.144 321.676 331.122 324.994 338.574C326.68 342.41 327.659 346.87 327.659 351.685C327.659 353.589 327.523 355.438 327.197 357.234H394.755V183.181H340.524V217.725C340.524 217.725 324.26 255.941 316.944 272.777C315.122 276.966 313.87 279.822 313.517 280.448C311.885 283.549 274.081 302.67 267.853 308.328C264.344 311.429 262.631 327.694 262.821 338.602Z" fill="#E89F56"/>
<path d="M339.898 228.958L322.982 270.629C322.574 271.662 323.308 272.778 324.423 272.778H352.627C352.627 272.778 358.882 271.717 359.698 258.933C360.568 245.278 360.541 221.696 360.541 221.696L347.133 221.642C342.047 222.376 341.258 225.205 339.898 228.958Z" fill="#AEC3FF"/>
<path d="M352.273 273.893H325.81C324.613 273.893 323.471 273.294 322.791 272.288C322.111 271.281 321.975 270.03 322.438 268.888L338.81 228.523L338.974 228.088C340.252 224.497 341.367 221.397 346.725 220.499C346.915 220.472 347.133 220.445 347.35 220.445L358.039 220.499C360.024 220.499 361.656 222.131 361.656 224.144C361.629 230.971 361.493 248.053 360.813 258.96C360.133 269.921 355.509 272.859 353.578 273.621C353.171 273.811 352.735 273.893 352.273 273.893ZM347.35 222.757C347.269 222.757 347.187 222.757 347.133 222.784C343.08 223.464 342.346 225.504 341.122 228.904L340.932 229.393L324.532 269.758C324.369 270.193 324.396 270.656 324.668 271.037C324.94 271.417 325.348 271.635 325.81 271.635H352.273C352.436 271.635 352.599 271.608 352.763 271.553C353.959 271.091 357.957 268.806 358.556 258.851C359.235 247.998 359.371 230.998 359.399 224.171C359.399 223.409 358.8 222.811 358.039 222.784L347.35 222.757Z" fill="#163560"/>
<path d="M178.21 299.107H277.154L313.299 270.683L313.517 270.547H213.676L185.254 293.395L178.21 299.107Z" fill="#FBB667"/>
<path d="M170.568 310.15C171.139 311.102 171.139 311.184 171.955 311.32L185.826 313.904C186.995 314.121 187.893 312.081 187.593 309.987L186.234 300.657L186.179 300.44L185.907 298.536C185.662 296.904 184.928 295.625 184.058 295.299L183.242 295L177.476 299.651C176.606 300.358 175.844 301.201 175.246 302.181C174.24 303.785 172.472 306.669 170.568 310.15Z" fill="#F9DDBF"/>
<path d="M556.198 183.181H338.375V215.63H556.198V183.181Z" fill="#FBB667"/>
<path d="M264.344 318.011L273.292 317.114C276.42 316.814 278.949 314.448 279.493 311.374L281.56 300.059C281.614 299.869 281.614 299.706 281.614 299.515C275.25 303.187 269.865 306.451 267.825 308.274C266.357 309.661 265.16 313.36 264.344 318.011Z" fill="#ED9740"/>
<path d="M247.373 319.697L264.344 318.011H264.371L273.319 317.113C276.447 316.814 278.976 314.448 279.52 311.374L281.587 300.059C281.642 299.869 281.642 299.705 281.642 299.515V299.488C281.75 297.094 279.575 295.163 277.127 295.653L250.691 301.011C249.005 301.365 247.672 302.616 247.21 304.248L244.109 315.726C243.484 317.902 245.197 319.942 247.373 319.697Z" fill="#F9DDBF"/>
<path d="M237.147 215.63H340.252C340.252 215.63 340.66 209.021 343.243 201.486C345.555 194.822 349.526 187.397 356.489 183.181H272.231C258.497 183.181 246.34 190.525 241.498 201.486C241.281 201.949 241.063 202.384 240.9 202.846C239.459 206.654 238.153 210.925 237.147 215.63Z" fill="#FBB667"/>
<path d="M264.317 318.011L273.292 317.114C276.42 316.814 278.949 314.448 279.493 311.374L281.56 300.059C281.614 299.869 281.614 299.678 281.614 299.515C275.25 303.187 269.865 306.478 267.825 308.301C266.357 309.661 265.16 313.36 264.317 318.011Z" fill="#E5BD98"/>
<path d="M167.331 340.778C167.304 349.89 175.055 357.261 184.575 357.261H290.372C290.073 355.466 289.91 353.616 289.91 351.712C289.91 346.925 290.889 342.437 292.575 338.602H167.359C167.331 339.336 167.331 340.043 167.331 340.778Z" fill="#E89F56"/>
<path d="M237.011 302.126H196.541C195.236 302.126 194.257 303.867 194.447 305.798L195.889 319.861C196.106 321.928 197.276 323.451 198.663 323.451H232.007C234.155 323.451 236.032 321.329 236.657 318.229L239.051 306.261C239.486 304.221 238.452 302.126 237.011 302.126Z" fill="#E89F56"/>
<path d="M331.168 250.256C331.168 250.256 329.618 267.963 338.375 272.805H325.375C323.797 272.805 322.71 271.2 323.308 269.731L331.168 250.256Z" fill="#163560"/>
<path d="M328.775 262.115C328.775 262.115 332.473 259.504 332.773 257.328V269.704H327.959L328.775 262.115Z" fill="#163560"/>
<path d="M332.773 257.3V270.955C332.773 272.179 333.072 273.348 333.588 274.382C334.84 276.884 337.45 278.625 340.442 278.625H342.89C347.078 278.625 350.532 275.198 350.532 270.982V257.328C350.532 255.886 350.124 254.553 349.417 253.411C349.417 253.384 349.417 253.384 349.417 253.384C348.057 251.153 345.637 249.684 342.89 249.684H340.442C336.199 249.657 332.773 253.112 332.773 257.3Z" fill="#2B478B"/>
<path d="M333.588 274.382C334.84 276.884 337.45 278.625 340.442 278.625H342.89C347.078 278.625 350.532 275.198 350.532 270.982V257.328C350.532 255.886 350.124 254.553 349.417 253.411C349.281 254.227 346.018 272.968 333.588 274.382Z" fill="#163560"/>
<path d="M497.235 357.288H541.648C542.6 353.289 545.401 324.729 520.515 324.729C497.887 324.729 496.228 350.76 497.235 357.288Z" fill="#0C2544"/>
<path d="M527.75 351.059C527.75 361.422 522.392 372.846 522.392 372.846C522.392 372.846 514.451 372.846 513.335 372.846C505.394 372.846 498.948 363.081 498.948 351.059C498.948 339.037 514.451 329.272 522.392 329.272C530.334 329.272 527.75 339.009 527.75 351.059Z" fill="#163560"/>
<path d="M522.392 372.846C530.338 372.846 536.779 363.092 536.779 351.059C536.779 339.026 530.338 329.272 522.392 329.272C514.446 329.272 508.005 339.026 508.005 351.059C508.005 363.092 514.446 372.846 522.392 372.846Z" fill="#2B478B"/>
<path d="M529.98 351.059C529.98 356.608 527.016 361.123 523.344 361.123C519.672 361.123 516.708 356.608 516.708 351.059C516.708 345.51 519.672 340.995 523.344 340.995C527.016 340.995 529.98 345.51 529.98 351.059Z" fill="#DFEBFD"/>
<path d="M237.147 215.63H342.563C342.563 215.63 340.66 209.021 343.243 201.486H241.498C241.281 201.949 241.063 202.384 240.9 202.846C239.459 206.654 238.153 210.925 237.147 215.63Z" fill="#E89F56"/>
<path d="M430.9 272.75H381.7C379.334 272.75 377.43 270.846 377.43 268.48V225.885C377.43 223.518 379.334 221.614 381.7 221.614H430.9C433.267 221.614 435.17 223.518 435.17 225.885V268.48C435.17 270.846 433.239 272.75 430.9 272.75Z" fill="#AEC3FF"/>
<path d="M503.762 272.75H453.529C451.462 272.75 449.775 271.064 449.775 268.997V225.368C449.775 223.301 451.462 221.614 453.529 221.614H503.762C505.829 221.614 507.515 223.301 507.515 225.368V268.997C507.515 271.064 505.829 272.75 503.762 272.75Z" fill="#AEC3FF"/>
<path d="M682.829 342.545C671.896 362.048 660.663 373.717 660.663 373.717L584.375 373.744L571.021 372.737C571.021 372.737 580.73 353.888 602.27 355.139C623.784 356.39 622.94 344.422 642.794 336.48C662.594 328.51 682.829 342.545 682.829 342.545Z" fill="#A8D29F"/>
<path opacity="0.7" d="M187.43 152.989C182.834 148.637 178.537 153.641 174.865 158.646C171.194 163.651 165.591 156.715 164.177 154.131C162.79 151.574 150.524 161.584 150.279 161.801C157.676 147.739 165.156 137.321 171.928 137.974C176.905 138.464 182.1 144.366 187.43 152.989Z" fill="#F8FCFF"/>
<path d="M99.5558 236.68C93.8172 227.404 85.794 231.729 79.0491 239.454C72.3042 247.179 74.5343 224.222 74.5343 220.849C74.5343 217.476 62.4587 223.243 62.4587 223.243C69.8564 213.859 76.7917 206.841 81.0073 206.868C87.6706 206.923 93.6268 222.835 99.5558 236.68Z" fill="#F8FCFF"/>
<path d="M279.602 270.465H233.203C235.216 260.429 238.779 245.197 241.879 244.081C242.478 243.864 243.402 243.646 244.545 243.429C245.66 243.211 246.992 243.021 248.488 242.857C251.534 242.531 255.179 242.313 258.878 242.395C262.386 242.476 265.922 242.83 268.968 243.592C272.15 244.381 274.815 245.632 276.338 247.509C278.079 249.63 278.976 253.493 279.412 257.899C279.439 258.253 279.466 258.579 279.493 258.933C279.602 260.374 279.656 261.897 279.684 263.393C279.684 263.665 279.684 263.937 279.684 264.237C279.738 266.358 279.711 268.453 279.602 270.465Z" fill="#B5453C"/>
<path d="M315.937 242.667C315.801 242.667 315.665 242.694 315.557 242.694C315.421 242.694 315.285 242.721 315.121 242.721C315.04 242.721 314.958 242.721 314.85 242.749C314.034 242.83 313.272 242.912 312.565 242.993C310.09 243.32 308.132 243.701 307.125 244.054C306.282 244.353 305.385 245.713 304.515 247.753C303.807 249.413 303.1 251.507 302.393 253.819C301.768 255.968 301.142 258.307 300.571 260.673C300.517 260.891 300.462 261.136 300.408 261.353C300.109 262.632 299.809 263.937 299.537 265.189C299.429 265.705 299.32 266.195 299.211 266.685C298.939 267.99 298.667 269.241 298.422 270.438H307.397C309.328 270.438 311.069 269.35 311.885 267.691L315.502 260.021L317.95 254.798L318.766 253.03L319.228 252.051L319.582 251.289L323.743 242.395C321.05 242.368 318.385 242.477 315.937 242.667Z" fill="#B5453C"/>
<path d="M268.995 243.592C266.493 236.928 262.413 230.4 259.775 229.04C257.11 227.652 254.961 228.523 254.961 228.523C246.802 227.571 244.409 237.091 244.517 240.382C244.545 241.388 244.599 242.395 244.572 243.456C244.49 245.876 243.892 248.488 241.363 251.452C237.12 256.403 238.153 259.476 240.927 261.326C241.906 261.979 243.076 262.496 244.327 262.904C244.762 263.04 245.197 263.176 245.66 263.284C246.693 263.556 247.7 263.747 248.651 263.883C251.045 264.264 252.921 264.291 252.921 264.291C253.057 257.736 258.334 257.137 261.679 257.763C262.359 257.899 262.984 258.089 263.447 258.28C264.1 258.552 264.48 258.851 264.371 259.041C264.752 259.123 265.106 259.204 265.459 259.259C267.662 259.585 269.158 259.041 270.083 257.899C272.177 255.26 271.171 249.385 268.995 243.592Z" fill="#163560"/>
<path d="M246.639 270.465H243.81C243.946 270.329 244.082 270.221 244.218 270.139C244.626 269.867 245.061 269.731 245.497 269.813C245.741 269.84 245.959 269.949 246.204 270.085C246.394 270.193 246.53 270.302 246.639 270.465Z" fill="#EBEEF2"/>
<path d="M263.827 270.465H245.633C245.578 270.247 245.551 270.03 245.497 269.785C245.333 268.724 245.225 267.609 245.306 266.358C245.388 265.324 245.497 264.263 245.633 263.257C246.367 258.089 247.863 253.655 247.999 253.275C247.999 253.247 247.999 253.247 247.999 253.247C247.999 253.247 248.679 253.057 249.467 252.839C250.99 252.404 252.024 250.99 252.024 249.412V249.358C252.024 248.624 251.997 247.889 251.969 247.263C251.969 247.073 251.942 246.91 251.942 246.747V246.583C251.942 246.502 251.942 246.42 251.942 246.339C251.942 246.311 251.942 246.284 251.942 246.257C251.942 246.121 251.915 246.012 251.915 245.903C251.915 245.876 251.915 245.849 251.915 245.822C251.915 245.795 251.915 245.74 251.915 245.713V245.686C251.915 245.604 251.915 245.577 251.915 245.577L258.062 244.353L258.442 244.271C258.442 246.801 258.823 248.814 259.313 250.174C259.721 251.316 260.7 252.132 261.869 252.404C262.25 252.486 262.93 252.567 263.256 252.676C263.256 252.676 263.338 254.961 263.474 258.252C263.583 261.489 263.746 265.705 263.855 269.567C263.8 269.894 263.827 270.166 263.827 270.465Z" fill="#FFB27D"/>
<path d="M251.888 245.604C251.888 245.604 252.024 247.536 252.024 249.358C255.478 249.249 257.3 246.121 258.034 244.38L251.888 245.604Z" fill="#E8945B"/>
<path d="M250.718 247.345C250.718 247.345 258.878 247.481 258.878 242.395C258.878 237.308 259.938 233.908 254.744 233.609C249.522 233.31 248.515 235.241 248.107 236.955C247.7 238.641 248.597 247.182 250.718 247.345Z" fill="#FFB27D"/>
<path d="M251.018 233.473C251.018 233.473 253.248 239.43 256.675 240.328C260.101 241.225 261.597 240.3 261.597 240.3C261.597 240.3 258.959 238.206 258.415 234.561C258.415 234.561 252.704 230.644 251.018 233.473Z" fill="#163560"/>
<path d="M251.589 233.963C251.589 233.963 249.93 234.588 249.25 235.785C248.57 236.955 248.026 238.532 248.135 240.463C248.135 240.463 246.448 236.411 248.352 234.126C250.365 231.678 251.589 233.963 251.589 233.963Z" fill="#163560"/>
<path d="M252.486 244.19C252.486 244.19 251.915 244.924 250.8 244.87C249.902 244.816 249.549 244.027 249.549 244.027C249.549 244.027 251.208 243.646 252.486 244.19Z" fill="#EBF3FA"/>
<path d="M265.079 270.465H263.447C263.447 270.438 263.447 270.438 263.447 270.411C263.447 270.057 263.42 269.704 263.365 269.323L263.8 269.595L265.079 270.465Z" fill="#EBEEF2"/>
<path d="M252.323 244.326C252.323 244.326 252.187 244.924 250.691 244.843C250.691 244.843 249.44 244.761 249.467 244.108C249.467 244.108 250.691 243.619 252.323 244.326Z" fill="white"/>
<path d="M272.041 264.78C271.47 262.006 270.844 259.504 270.137 258.116C270.11 258.035 270.056 257.98 270.028 257.899C267.581 253.302 263.202 252.731 263.202 252.731C254.608 259.748 247.999 253.275 247.999 253.275C247.999 253.275 244.354 254.118 243.266 255.75C242.858 256.376 241.934 258.688 240.9 261.326C239.459 265.025 237.827 269.323 237.147 270.465H244.273H249.005H263.474H266.955H273.129C272.775 268.616 272.422 266.63 272.041 264.78Z" fill="white"/>
<path d="M316.237 252.676C312.157 252.404 307.697 254.009 307.86 253.628C307.887 253.547 307.914 253.465 307.969 253.411C307.969 253.411 305.358 253.384 302.42 253.846C299.673 254.281 296.655 255.125 295.213 256.838C294.941 257.165 294.56 257.6 294.125 258.089C293.146 259.177 291.841 260.592 290.426 262.115C287.951 264.835 285.15 267.99 283.355 270.493H299.51H300.245H307.425C309.356 270.493 311.096 269.405 311.912 267.745L315.529 260.075L317.977 254.853L318.793 253.084C317.868 252.867 317.025 252.731 316.237 252.676Z" fill="#ABDDDA"/>
<path d="M319.228 252.051L318.766 253.03L317.95 254.798C316.128 255.342 313.653 255.832 311.042 255.669C310.96 255.669 310.906 255.669 310.824 255.669C310.063 255.614 309.274 255.506 308.485 255.315C308.485 255.315 308.159 255.206 307.941 254.934C307.751 254.69 307.615 254.282 307.86 253.683C307.887 253.602 307.914 253.52 307.969 253.466C307.669 252.242 307.697 252.35 307.533 251.426C307.506 251.235 307.452 251.018 307.425 250.827C307.397 250.664 307.37 250.474 307.343 250.338C307.234 249.794 307.18 249.331 307.125 248.978C307.125 248.95 307.125 248.896 307.098 248.869C307.098 248.814 307.098 248.76 307.071 248.706C307.071 248.678 307.071 248.651 307.071 248.651C307.044 248.298 307.017 248.107 307.017 248.107L307.18 247.971L310.987 244.517L312.565 243.075L314.333 241.443L314.714 241.09C314.714 241.498 314.741 241.933 314.795 242.314C314.822 242.477 314.822 242.64 314.849 242.803C314.904 243.293 314.985 243.782 315.094 244.245C315.611 246.72 316.59 248.678 317.596 250.147C318.168 250.882 318.739 251.534 319.228 252.051Z" fill="#FFB27D"/>
<path d="M315.04 244.435C315.04 244.435 312.647 249.63 307.533 251.371C307.125 249.249 306.908 247.073 306.908 247.073L310.987 244.489L315.04 244.435Z" fill="#ED985F"/>
<path d="M302.937 247.563C302.937 247.563 314.197 249.821 315.502 242.885C316.808 235.949 319.147 231.597 312.021 229.856C304.895 228.115 302.991 230.509 301.985 232.712C300.979 234.915 300.054 246.801 302.937 247.563Z" fill="#FFB27D"/>
<path d="M320.126 229.312C320.235 229.203 320.479 229.121 320.996 229.094C320.996 229.094 320.588 228.822 320.017 228.768C319.935 228.033 319.582 226.728 318.331 226.347C318.331 226.347 318.984 226.728 319.065 227.517C317.651 225.966 314.55 224.742 305.847 225.123C294.37 225.613 297.878 233.065 299.32 234.017C300.761 234.969 304.596 232.685 307.343 233.011C310.09 233.337 310.471 237.336 311.395 237.907C312.32 238.478 311.967 237.499 313.272 236.982C314.55 236.465 314.605 238.56 314.197 239.92C313.789 241.28 315.448 243.129 315.448 243.129C315.448 243.129 315.448 243.129 317.27 241.307C319.092 239.485 321.051 231.515 320.316 229.774C320.262 229.638 320.207 229.475 320.126 229.312Z" fill="#2C3A64"/>
<path d="M317.624 250.093C317.46 251.099 316.916 251.97 316.237 252.677C314.414 254.608 311.45 255.533 311.042 255.642C311.015 255.642 311.015 255.642 311.015 255.642C311.395 257.709 311.015 261.109 311.015 261.109C312.701 261.027 314.197 260.592 315.502 259.994L317.95 254.771L318.766 253.003L319.228 252.024L319.582 251.262C318.249 250.283 317.624 250.093 317.624 250.093Z" fill="#91CECF"/>
<path d="M310.988 255.669C310.988 255.669 307.289 257.301 306.799 260.238C306.799 260.238 305.602 257.981 306.092 256.512C306.582 255.043 307.941 253.411 307.941 253.411C307.941 253.411 307.697 255.206 310.988 255.669Z" fill="#91CECF"/>
<path d="M304.569 265.678C304.134 265.08 303.671 264.509 303.182 263.965C302.747 263.448 302.257 262.986 301.768 262.523C301.332 262.115 300.897 261.734 300.435 261.381C300.326 261.299 300.217 261.19 300.081 261.109C298.286 259.776 296.274 258.742 294.125 258.062C292.194 257.437 290.127 257.11 287.979 257.11C285.177 257.11 282.512 257.682 280.064 258.715C279.874 258.797 279.711 258.878 279.52 258.96C277.834 259.722 276.284 260.728 274.869 261.898C273.836 262.768 272.884 263.72 272.041 264.781C270.681 266.467 269.566 268.398 268.804 270.466H274.026C275.332 267.909 277.317 265.76 279.738 264.264C282.131 262.768 284.96 261.925 287.979 261.925C288.822 261.925 289.638 261.979 290.426 262.115C293.853 262.659 296.926 264.318 299.238 266.739C299.51 267.011 299.782 267.31 300.027 267.61C300.353 268.018 300.68 268.453 300.979 268.888C301.332 269.405 301.632 269.922 301.904 270.493H307.125C306.473 268.752 305.63 267.147 304.569 265.678Z" fill="#233862"/>
<path d="M301.441 242.586C301.441 242.586 301.55 243.81 302.257 244.027C302.964 244.245 304.052 244.19 304.515 243.755C304.977 243.293 304.977 243.293 304.977 243.293C304.977 243.293 302.284 242.341 301.441 242.586Z" fill="white"/>
<path d="M301.849 259.721C301.849 259.721 297.226 262.958 298.042 264.345C298.857 265.733 304.895 266.059 305.602 265.379C306.309 264.699 303.291 258.606 301.849 259.721Z" fill="#FFB27D"/>
<path d="M274.57 261.707C274.57 261.707 278.405 264.345 279.629 263.502C280.853 262.659 280.336 258.334 279.575 257.953C278.813 257.573 273.265 260.891 274.57 261.707Z" fill="#FFB27D"/>
<path d="M504.143 272.288H457.336C458.315 268.534 459.866 263.04 461.633 258.552C461.769 258.198 461.905 257.845 462.041 257.518C463.265 254.553 464.571 252.16 465.822 251.235C465.849 251.208 465.876 251.208 465.876 251.181C466.094 251.017 466.311 250.909 466.556 250.854C467.209 250.691 468.215 250.501 469.493 250.337C470.527 250.201 471.696 250.065 473.002 249.957C474.552 249.821 476.293 249.712 478.115 249.657C478.469 249.657 478.795 249.63 479.148 249.63C479.638 249.63 480.128 249.603 480.617 249.603C481.297 249.603 481.977 249.603 482.684 249.603C483.5 249.603 484.289 249.63 485.105 249.657C491.55 249.875 497.833 250.8 500.743 253.112C500.852 253.193 500.961 253.275 501.042 253.357C504.687 256.675 504.687 265.678 504.143 272.288Z" fill="#91CECF"/>
<path d="M467.508 261.925C471.125 261.354 472.349 256.784 469.521 254.472C466.638 252.133 463.945 249.63 463.32 248.026C461.851 244.299 460.953 236.221 460.953 236.221L458.37 237.01C458.37 237.01 457.282 245.931 458.614 250.963C459.593 254.608 463.02 258.878 464.815 260.946C465.468 261.707 466.502 262.088 467.508 261.925Z" fill="#FFB27D"/>
<path d="M458.342 237.009C458.342 237.009 458.478 233.392 459.594 232.032C460.709 230.672 461.525 229.475 462.613 230.073C463.7 230.672 462.041 233.963 462.259 234.099C462.477 234.235 463.945 232.929 463.972 233.337C464 233.745 462.232 235.486 461.878 235.677C461.525 235.867 460.926 236.193 460.926 236.193L458.342 237.009Z" fill="#FFB27D"/>
<path d="M472.458 254.608C472.458 254.608 470.717 254.689 470.037 254.309C467.807 253.085 464.87 250.256 464.87 250.256C464.87 250.256 458.941 256.539 463.075 264.046C463.32 264.427 472.458 254.608 472.458 254.608Z" fill="#F77D48"/>
<path d="M487.09 272.288H460.981C461.579 269.35 462.286 266.549 463.129 264.046C463.537 262.795 464 261.598 464.462 260.538C465.931 257.274 467.698 255.043 469.82 254.717C469.929 254.69 470.037 254.69 470.173 254.69C470.636 254.662 471.18 254.635 471.778 254.635H471.805C472.023 254.635 472.24 254.635 472.485 254.635C474.661 254.662 477.381 254.934 480.019 255.914C480.236 255.995 480.481 256.077 480.699 256.186C481.977 256.73 483.201 257.464 484.316 258.416C484.833 258.851 485.295 259.341 485.757 259.858C486.465 260.728 486.764 264.89 486.873 267.99C486.954 269.976 486.954 271.499 486.954 271.499C486.954 271.499 486.981 271.771 487.09 272.288Z" fill="#F77D48"/>
<path d="M470.282 238.778C470.336 238.669 473.111 234.643 478.006 233.99C481.977 233.474 485.567 236.384 486.029 240.355C486.492 244.354 485.703 249.494 479.148 251.099L470.282 238.778Z" fill="#2C3A64"/>
<path d="M474.335 258.117C476.483 259.096 479.04 258.171 480.073 256.05C480.073 256.05 479.284 254.146 479.148 251.126C479.094 249.848 479.148 248.379 479.42 246.774L472.947 249.331C472.947 249.331 473.029 249.93 473.056 250.773C473.083 251.698 473.002 252.922 472.621 254.064V254.091C472.077 255.696 472.811 257.437 474.335 258.117Z" fill="#FFB27D"/>
<path d="M472.621 254.064C476.129 254.309 479.148 251.126 479.148 251.126L473.056 250.773C473.056 251.698 472.975 252.922 472.621 254.064Z" fill="#EA9C68"/>
<path d="M471.098 251.942C471.098 251.942 477.925 254.472 480.889 249.168C484.098 243.429 481.678 238.75 479.312 238.234C474.634 237.173 471.696 238.696 470.69 240.546C469.657 242.341 467.345 250.582 471.098 251.942Z" fill="#FFB27D"/>
<path d="M474.199 249.086C474.199 249.086 473.845 249.766 472.023 249.195C472.023 249.195 470.5 248.706 470.772 247.89C470.772 247.89 472.404 247.699 474.199 249.086Z" fill="white"/>
<path d="M476.401 238.778C476.401 238.778 475.531 245.224 481.569 247.727C483.99 248.733 485.594 238.887 480.563 236.738C475.531 234.589 470.418 236.738 469.711 240.165C468.977 243.592 469.412 244.327 469.412 244.327C469.412 244.327 472.05 237.853 476.401 238.778Z" fill="#2C3A64"/>
<path d="M484.343 239.947C484.588 239.077 484.425 238.832 484.126 238.75C483.854 238.669 483.582 238.805 483.337 239.648C483.092 240.518 483.391 241.362 483.391 241.362C483.391 241.362 484.098 240.818 484.343 239.947Z" fill="#F99746"/>
<path d="M482.358 239.947C481.651 239.376 481.379 239.43 481.188 239.675C480.998 239.893 480.998 240.192 481.705 240.763C482.412 241.334 483.282 241.389 483.282 241.389C483.282 241.389 483.038 240.491 482.358 239.947Z" fill="#F99746"/>
<path d="M485.05 240.682C485.948 240.546 486.165 240.763 486.193 241.035C486.22 241.307 486.084 241.579 485.186 241.688C484.289 241.824 483.5 241.389 483.5 241.389C483.5 241.389 484.153 240.818 485.05 240.682Z" fill="#F99746"/>
<path d="M484.642 242.667C485.05 243.456 484.914 243.755 484.67 243.864C484.425 244 484.126 243.918 483.718 243.13C483.31 242.341 483.446 241.443 483.446 241.443C483.446 241.443 484.234 241.878 484.642 242.667Z" fill="#F99746"/>
<path d="M481.705 241.851C480.943 242.314 480.916 242.613 481.052 242.858C481.188 243.102 481.487 243.211 482.249 242.722C483.011 242.259 483.337 241.416 483.337 241.416C483.337 241.416 482.467 241.389 481.705 241.851Z" fill="#F99746"/>
<path d="M483.799 241.362C483.799 241.144 483.636 240.981 483.446 240.981C483.228 240.981 483.065 241.144 483.065 241.334C483.065 241.552 483.228 241.715 483.418 241.715C483.636 241.742 483.799 241.579 483.799 241.362Z" fill="#FFB93E"/>
<path d="M489.293 266.603C489.293 268.561 489.13 270.601 488.64 272.288H482.983C483.092 271.445 482.956 270.193 482.684 268.779C482.385 267.229 481.895 265.488 481.351 263.747C480.59 261.272 482.14 258.987 484.289 258.389C485.186 258.144 486.193 258.198 487.144 258.634C488.069 259.069 488.722 259.939 488.858 260.973C489.075 262.36 489.266 264.427 489.293 266.603Z" fill="#FFB27D"/>
<path d="M480.073 256.077C480.073 256.077 485.241 256.811 487.743 258.525C490.218 260.238 491.387 264.645 491.387 264.645C491.387 264.645 487.389 269.758 481.079 268.643L480.073 256.077Z" fill="#F77D48"/>
<path d="M482.439 235.459C482.439 235.459 487.471 233.555 492.91 235.459C498.35 237.363 495.168 243.429 497.207 245.224C499.247 247.019 501.831 251.861 500.281 254.635C498.73 257.409 493.318 258.633 489.293 257.627C485.975 256.811 482.847 251.697 486.192 247.808C490.571 242.721 488.667 236.193 482.412 237.499L482.439 235.459Z" fill="#2C3A64"/>
<path d="M503.245 273.131H454.045C451.217 273.131 448.932 270.846 448.932 268.017V225.422C448.932 222.593 451.217 220.309 454.045 220.309H503.245C506.074 220.309 508.358 222.593 508.358 225.422V268.017C508.358 270.819 506.046 273.131 503.245 273.131ZM454.018 221.995C452.142 221.995 450.591 223.545 450.591 225.422V268.017C450.591 269.894 452.142 271.445 454.018 271.445H503.218C505.095 271.445 506.645 269.894 506.645 268.017V225.422C506.645 223.545 505.095 221.995 503.218 221.995H454.018Z" fill="#2C3A64"/>
<path d="M436.422 254.172C435.932 254.852 435.334 255.668 434.681 256.566V268.072C434.681 269.921 433.158 271.444 431.308 271.444H390.757C391.519 268.507 392.716 264.182 394.103 260.102C394.13 259.993 394.184 259.884 394.211 259.776C395.218 256.865 396.333 254.118 397.448 252.16C397.475 252.132 397.502 252.078 397.529 252.024C398.427 250.473 399.352 249.412 400.222 249.195C400.848 249.032 401.799 248.868 402.996 248.705C403.54 248.624 404.138 248.569 404.791 248.488C405.471 248.406 406.233 248.352 406.994 248.27C408.517 248.134 410.176 248.052 411.917 247.998C412.76 247.971 413.603 247.944 414.473 247.944C414.936 247.944 415.371 247.944 415.833 247.944C416.241 247.944 416.676 247.944 417.111 247.944C418.091 247.971 419.042 247.998 420.022 248.025C424.428 248.243 428.643 248.814 431.662 249.956C432.913 250.419 433.947 250.99 434.708 251.67C435.388 252.323 435.959 253.166 436.422 254.172Z" fill="#91CECF"/>
<path d="M403.839 259.667C403.839 259.667 393.885 248.189 393.368 246.72C392.851 245.251 391.247 232.522 391.247 232.522L388.527 232.494C388.527 232.494 387.14 247.346 387.901 250.365C388.663 253.384 400.331 267.338 400.331 267.338L403.839 259.667Z" fill="#FFB27D"/>
<path d="M405.933 256.512C406.287 256.023 406.559 255.506 406.749 254.935C407.212 253.683 407.32 252.296 407.348 251.263C407.348 250.311 407.266 249.658 407.266 249.658L414.609 247.019C414.256 248.814 414.147 250.447 414.174 251.861C414.228 255.261 415.044 257.41 415.044 257.41L414.908 257.736C415.697 257.927 416.54 258.144 417.438 258.389L407.891 262.877L402.751 257.029C402.778 257.029 403.567 256.539 405.933 256.512Z" fill="#FFB27D"/>
<path d="M406.776 254.934C410.693 255.342 414.201 251.861 414.201 251.861L407.375 251.262C407.348 252.296 407.212 253.683 406.776 254.934Z" fill="#EA9C68"/>
<path d="M443.357 237.227C443.357 237.227 439.848 249.44 437.373 252.867C437.101 253.221 436.802 253.656 436.449 254.173C435.959 254.853 435.361 255.669 434.708 256.566C433.43 258.307 431.907 260.293 430.329 262.088C428.262 264.454 426.086 266.522 424.237 267.365C423.639 267.637 423.095 267.773 422.578 267.773C422.197 267.773 421.871 267.691 421.572 267.61C420.565 267.283 419.994 266.467 419.695 265.542C419.042 263.502 419.641 260.81 419.641 260.81C419.641 260.81 420.239 260.211 421.191 259.286C422.333 258.171 423.965 256.594 425.733 254.989C427.745 253.139 429.894 251.262 431.635 249.984C432.097 249.63 432.559 249.331 432.94 249.086C432.94 249.086 433.675 247.781 434.681 246.013C436.748 242.368 439.957 236.683 440.311 236.166C440.338 236.139 440.365 236.085 440.392 236.085C441.018 235.595 443.03 237.064 443.302 237.254C443.33 237.227 443.357 237.227 443.357 237.227Z" fill="#FFB27D"/>
<path d="M405.145 252.514C405.145 252.514 412.678 255.587 416.187 249.712C419.967 243.374 417.383 238.098 414.772 237.418C409.578 236.085 406.232 237.69 405.036 239.702C403.839 241.715 400.983 250.854 405.145 252.514Z" fill="#FFB27D"/>
<path d="M409.061 249.413C409.061 249.413 408.109 250.501 406.096 249.766C406.096 249.766 404.274 249.195 404.873 247.971C404.9 247.971 407.13 247.808 409.061 249.413Z" fill="white"/>
<path d="M414.5 251.697C414.5 251.697 415.752 249.113 415.833 247.672C415.833 247.672 418.199 245.333 417.111 244.544C416.024 243.755 415.18 245.197 414.936 244.87C414.691 244.544 414.936 239.376 413.467 239.349C411.998 239.322 406.45 240.301 404.383 237.962C402.316 235.65 408.979 228.496 418.226 232.766C427.446 237.064 424.101 247.509 414.5 251.697Z" fill="#2C3A64"/>
<path d="M422.415 237.581C422.415 237.581 423.013 236.33 422.66 235.35C422.66 235.35 422.469 236.629 421.898 237.118C421.327 237.608 422.415 237.581 422.415 237.581Z" fill="#2C3A64"/>
<path d="M422.333 236.656C422.333 236.656 423.53 236.683 423.992 237.662C423.992 237.662 423.231 236.982 422.306 237.472L422.333 236.656Z" fill="#2C3A64"/>
<path d="M425.733 261.735L424.237 267.365L423.666 269.541C423.666 269.568 423.666 269.568 423.666 269.595L423.367 270.711L423.176 271.418H395.68L396.605 267.202L397.366 263.693L398.835 257.056C398.835 257.056 399.651 256.784 401.174 256.539C402.343 256.349 403.893 256.186 405.852 256.131C405.824 256.267 405.824 256.403 405.824 256.539C405.797 257.491 406.287 258.362 408.136 258.824C410.856 259.504 413.521 258.199 414.99 257.165C415.044 257.138 415.072 257.111 415.126 257.083C417.084 257.6 419.097 258.307 421.218 259.314C422.66 259.967 424.183 260.783 425.733 261.735Z" fill="#F77D48"/>
<path d="M430.384 263.611C430.384 263.611 424.4 266.685 423.639 269.595C423.639 269.595 415.86 262.768 415.099 257.056C415.099 257.056 416.839 257.138 418.906 258.062C418.906 258.062 420.021 257.709 421.137 257.818L425.733 254.962C425.733 254.962 430.465 256.866 430.384 263.611Z" fill="#F77D48"/>
<path d="M405.824 256.104C405.824 256.104 403.485 255.587 402.615 255.696C402.615 255.696 402.234 255.315 401.255 255.152L396.577 251.235C396.577 251.235 392.743 254.282 392.987 259.205C392.987 259.205 396.877 262.333 396.849 262.959C396.822 263.584 396.55 267.229 396.55 267.229L405.824 256.104Z" fill="#F77D48"/>
<path d="M391.247 232.494C391.247 232.494 391.355 231.325 391.845 230.4C392.335 229.475 392.443 226.891 391.954 226.973C391.464 227.054 391.546 228.006 391.029 227.816C390.512 227.653 390.023 224.579 389.288 224.742C388.554 224.933 387.929 225.858 387.847 228.034C387.793 230.21 388.5 232.467 388.5 232.467L391.247 232.494Z" fill="#FFB27D"/>
<path d="M440.392 236.112C440.392 236.112 440.827 234.861 440.773 233.691C440.691 232.494 441.779 229.829 442.269 230.155C442.758 230.482 442.214 231.379 442.813 231.461C443.438 231.515 445.342 228.605 446.022 229.149C446.675 229.666 446.892 230.917 445.941 233.174C444.989 235.432 443.194 237.418 443.194 237.418L440.392 236.112Z" fill="#FFB27D"/>
<path d="M430.9 273.131H381.701C378.872 273.131 376.587 270.846 376.587 268.017V225.422C376.587 222.593 378.872 220.309 381.701 220.309H430.9C433.729 220.309 436.013 222.593 436.013 225.422V268.017C436.013 270.819 433.702 273.131 430.9 273.131ZM381.701 221.995C379.824 221.995 378.274 223.545 378.274 225.422V268.017C378.274 269.894 379.824 271.445 381.701 271.445H430.9C432.777 271.445 434.327 269.894 434.327 268.017V225.422C434.327 223.545 432.777 221.995 430.9 221.995H381.701Z" fill="#2C3A64"/>
<path d="M306.881 272.07H223.385C221.318 272.07 219.414 271.064 218.299 269.35C217.211 267.691 217.048 265.624 217.864 263.828L221.563 255.56L236.358 222.512C237.31 220.363 239.486 218.976 241.852 218.976H329.944C331.114 218.976 332.174 219.547 332.8 220.526C333.398 221.478 333.48 222.648 333.017 223.681L312.347 268.588C311.396 270.71 309.22 272.07 306.881 272.07ZM241.879 221.206C240.383 221.206 239.024 222.076 238.398 223.409L219.877 264.699C219.387 265.814 219.469 267.065 220.149 268.099C220.856 269.187 222.052 269.812 223.358 269.812H306.854C308.349 269.812 309.709 268.969 310.335 267.636L331.005 222.729C331.168 222.403 331.141 222.022 330.923 221.723C330.706 221.369 330.352 221.179 329.917 221.179H241.879V221.206Z" fill="#163560"/>
<path d="M358.773 299.977C357.794 299.977 356.978 299.189 356.978 298.182V292.606C356.978 291.627 357.767 290.811 358.773 290.811C359.752 290.811 360.568 291.6 360.568 292.606V298.182C360.541 299.161 359.752 299.977 358.773 299.977Z" fill="#163560"/>
<path d="M371.039 213.454H369.353V355.112H371.039V213.454Z" fill="#0F214F"/>
<path d="M530.361 309.198H508.902C506.808 309.198 505.095 307.485 505.095 305.39V294.537C505.095 292.443 506.808 290.729 508.902 290.729H530.361C532.455 290.729 534.169 292.443 534.169 294.537V305.39C534.141 307.485 532.455 309.198 530.361 309.198ZM508.902 291.573C507.27 291.573 505.938 292.905 505.938 294.537V305.39C505.938 307.022 507.27 308.355 508.902 308.355H530.361C531.993 308.355 533.325 307.022 533.325 305.39V294.537C533.325 292.905 531.993 291.573 530.361 291.573H508.902Z" fill="#0F214F"/>
</svg>
