<svg width="653" height="389" viewBox="0 0 653 389" fill="none" xmlns="http://www.w3.org/2000/svg">
<path d="M29.4799 304.148C29.4799 304.148 -48.6161 352.916 51.3919 357.361C151.4 361.806 90.0559 404.656 232.136 381.745C374.216 358.834 509.384 404.173 509.456 356.624C509.456 356.624 598.208 386.241 603.44 349.233C603.44 349.233 672.296 366.098 646.592 337.346C620.888 308.593 135.2 221.547 87.5839 252.865C39.9679 284.183 11.6719 285.199 29.4799 304.148Z" fill="#8CB7EA"/>
<path d="M15.6081 327.135C15.6321 327.262 15.6561 327.363 15.6801 327.49L25.6881 327.465L181.016 326.957L283.52 326.627H286.64L293.864 326.601L387.632 326.297L603.68 325.585L611.624 325.56L617.12 325.534H620.288H621.68C621.68 325.534 621.896 325.179 622.28 324.468C622.304 324.391 622.352 324.341 622.4 324.264C622.544 324.01 622.688 323.706 622.88 323.375C623.888 321.42 625.472 318.219 627.368 313.978C627.848 312.885 628.352 311.691 628.88 310.472C629.288 309.482 629.72 308.466 630.128 307.374C630.272 307.018 630.416 306.662 630.56 306.281C630.704 305.9 630.848 305.519 631.016 305.138C631.808 303.106 632.6 300.922 633.392 298.636C634.184 296.375 634.976 294.013 635.744 291.549C635.768 291.499 635.768 291.448 635.792 291.397C636.224 290 636.632 288.577 637.064 287.13C637.664 284.996 638.264 282.812 638.84 280.551C639.392 278.392 639.896 276.182 640.4 273.922C641.264 269.909 642.032 265.743 642.68 261.425C643.952 252.764 644.696 243.543 644.552 234.018C644.432 225.179 643.544 216.061 641.672 206.815C636.968 183.726 625.976 159.952 604.64 138.21C526.208 58.225 458.768 102.548 424.544 100.313C418.4 99.9064 413.024 97.341 407.72 93.2516C398.024 85.7586 388.64 73.211 375.536 59.749C355.904 39.556 327.944 17.3056 278.096 6.89158C216.416 -5.98621 131.696 -2.37941 95.0481 36.3048C72.8721 59.6982 68.2881 95.944 97.0401 149.132C98.7921 152.357 100.664 155.659 102.656 159.012C104.336 161.832 105.8 164.524 107.048 167.115C110.216 173.566 112.088 179.281 112.88 184.361C114.776 196.553 110.408 205.215 102.608 212.301C100.352 214.359 97.8321 216.264 95.0721 218.118C85.9521 224.214 74.4081 229.472 62.9121 235.593C56.5761 238.997 50.2401 242.654 44.3121 246.896C38.8161 250.833 33.6801 255.278 29.2401 260.434C26.3361 263.812 23.7441 267.496 21.5121 271.56C21.3921 271.788 21.2721 272.017 21.1521 272.245C18.2961 277.655 16.1121 283.726 14.8161 290.609C14.7441 290.965 14.6961 291.321 14.6241 291.676C12.8961 301.633 13.0161 313.317 15.6081 327.135Z" fill="#FFEDC5"/>
<path d="M97.016 149.132L443.432 211.463L468.296 179.916L95.024 36.3048C72.848 59.6982 68.264 95.944 97.016 149.132Z" fill="#F9EFDC"/>
<path d="M15.68 327.49L181.04 326.957L283.544 326.627H286.664L293.888 326.601C359.792 287.892 379.88 247.303 379.88 247.303C377.528 246.668 208.856 209.888 95.072 218.093C85.952 224.189 74.408 229.446 62.912 235.568C56.576 238.971 50.24 242.629 44.312 246.871C23.216 261.984 7.49597 284.386 15.68 327.49Z" fill="#E1EFFF"/>
<path d="M15.68 327.49L621.728 325.509C621.728 325.509 654.224 268.588 641.648 206.764C634.184 212.124 625.712 216.01 620.336 211.59C613.544 206.002 594.128 189.695 579.416 177.326C569.288 168.817 561.416 162.162 561.416 162.162C561.416 162.162 553.16 153.754 547.736 156.091C545.24 157.183 542.792 159.774 540.656 162.162C540.632 162.187 540.632 162.187 540.632 162.187C538.16 164.956 536.048 167.394 534.704 166.861C533.48 166.378 524.408 156.548 513.848 145.652C502.64 134.044 489.752 121.217 482.864 117.051C482.864 117.051 476.456 110.117 469.52 118.067C465.968 122.131 460.472 132.545 454.352 145.068C440.24 173.947 422.696 214.029 417.368 213.495C409.736 212.733 397.856 194.775 390.656 192.972C383.456 191.169 350.624 253.983 336.632 256.675C322.64 259.368 295.928 236.482 274.304 243.213C252.68 249.944 217.688 287.638 185.24 280.907C159.272 275.522 100.568 245.144 62.936 235.517C33.944 251.062 5.19198 272.296 15.68 327.49Z" fill="#D9E9FC"/>
<path d="M14.8161 290.584L15.9441 290.178C17.1201 289.797 19.0401 289.365 20.8641 289.644C22.7601 289.949 25.9521 292.413 27.8961 294.064C26.9841 292.438 26.1681 290.406 25.9521 288.197C25.4481 282.812 27.4401 276.741 30.6081 280.754C32.9121 283.65 31.8801 291.321 31.1361 295.334C32.3601 295.842 33.6081 296.401 34.8321 297.01C36.3441 291.346 38.5281 284.59 41.5281 278.011C42.9441 274.862 71.3601 280.5 83.4081 287.993C102.608 299.906 162.296 287.917 180.968 291.041C199.616 294.191 235.424 308.847 270.2 298.992C304.976 289.136 419.48 282.837 452.96 276.563C482.432 271.026 588.656 238.54 644.504 234.044C644.648 243.594 643.904 252.789 642.632 261.45C637.16 298.509 621.704 325.585 621.704 325.585L181.016 327.008L102.296 326.22L15.2721 325.357C12.9201 311.793 12.9681 300.363 14.8161 290.584Z" fill="#8CB7EA"/>
<path d="M15.392 325.89L102.32 326.17L181.04 326.957L283.544 326.627H286.664L293.888 326.601L387.656 326.297L621.728 325.535C621.728 325.535 637.184 298.484 642.656 261.4C598.184 265.464 510.056 274.303 404.696 288.374C253.304 308.567 174.392 321.902 92.12 294.928C76.952 289.949 63.8 285.479 52.28 281.567C48.536 280.297 44.96 279.103 41.552 277.96C38.168 276.843 34.976 275.776 31.88 274.785C28.4 273.668 24.752 272.347 21.608 271.382C21.392 271.763 21.32 271.915 21.152 272.22C18.296 277.63 16.112 283.701 14.816 290.584C12.968 300.363 13.04 312.377 15.392 325.89Z" fill="#B4D5EF"/>
<path d="M15.392 325.89L181.04 326.957L283.544 326.627H286.664L293.888 326.601L387.656 326.297L621.848 325.306C621.848 325.306 622.16 324.773 622.904 323.35C623.912 321.394 625.496 318.194 627.392 313.952C602.432 304.732 554.408 274.201 511.712 288.679C448.088 310.244 196.04 325.433 150.872 316.67C105.704 307.907 64.664 297.087 48.296 313.165C43.832 317.508 18.872 305.646 15.392 325.89Z" fill="#AFD295"/>
<path d="M622.424 324.239C622.568 323.985 622.712 323.68 622.904 323.35C623.912 321.394 625.496 318.194 627.392 313.952C627.872 312.86 628.376 311.666 628.904 310.447C629.312 309.456 629.744 308.44 630.152 307.348C630.296 306.993 630.44 306.637 630.584 306.256C630.728 305.875 630.872 305.494 631.04 305.113C620.264 278.392 596.024 225.154 573.368 231.783C551.024 238.336 597.536 295.715 622.424 324.239Z" fill="#82B378"/>
<path d="M637.064 287.104C637.664 284.971 638.264 282.786 638.84 280.526C639.392 278.367 639.896 276.157 640.376 273.896C635.912 249.944 628.64 220.709 619.856 221.801C609.44 223.046 626.192 263.305 637.064 287.104Z" fill="#82B378"/>
<path d="M552.416 301.735C559.952 305.977 581.72 316.645 600.248 325.585L610.04 325.56L616.832 325.535C601.04 309.964 573.392 287.231 549.152 287.485C546.848 287.511 544.808 289.263 544.448 291.676C544.04 294.242 545.408 297.772 552.416 301.735Z" fill="#82B378"/>
<path d="M454.328 145.093C457.688 146.236 462.344 146.846 462.944 142.07C463.784 135.111 482.672 148.573 492.416 151.494C502.16 154.415 496.664 142.528 496.88 139.149C497 137.092 506.48 141.74 513.848 145.677C502.64 134.069 489.752 121.242 482.864 117.077C482.864 117.077 476.456 110.143 469.52 118.093C465.92 122.182 460.448 132.596 454.328 145.093Z" fill="#F8FBFF"/>
<path d="M540.632 162.213C540.848 162.009 542.672 160.435 545.984 162.238C549.512 164.168 554.192 165.21 556.304 164.524C558.416 163.838 579.416 177.351 579.416 177.351C569.288 168.842 561.416 162.187 561.416 162.187C561.416 162.187 553.16 153.78 547.736 156.117C545.216 157.234 542.768 159.825 540.632 162.213Z" fill="#F8FBFF"/>
<path d="M227.144 30.1834L407.696 93.2262C398 85.7332 388.616 73.1856 375.512 59.7236L227.144 30.1834Z" fill="#F8FBFF"/>
<path d="M232.712 51.2146C237.104 51.2146 240.656 54.9738 240.656 59.622C240.656 64.2702 237.104 68.0294 232.712 68.0294C228.32 68.0294 224.768 64.2702 224.768 59.622C224.768 54.9738 228.32 51.2146 232.712 51.2146Z" fill="#F8FBFF"/>
<path d="M407.144 69.1216C407.144 69.1216 395.888 62.8478 379.784 61.6032C371.144 60.9428 363.152 66.5816 360.44 75.2938C360.272 75.8018 360.128 76.3098 359.984 76.8686C356.192 91.2704 358.256 134.908 371 146.287C383.744 157.666 407.144 152.865 407.144 152.865V69.1216Z" fill="#233862"/>
<path d="M387.392 49.716L414.776 54.6182L412.688 64.6004L387.584 70.8742L387.392 49.716Z" fill="#82B378"/>
<path d="M486.272 112.505C485.048 111.565 483.92 114.943 482.384 114.816C482.024 114.791 483.92 112.81 484.376 112.124C484.832 111.438 484.736 111.057 484.4 110.854C484.064 110.651 479.696 113.165 478.808 114.207C478.256 114.842 477.08 117.153 476.24 118.855C476.24 118.829 476.24 118.829 476.24 118.829C476.24 118.829 451.4 120.785 446.384 120.328C442.736 120.023 440.96 92.8198 440.672 92.8706C435.944 93.7088 426.728 95.7408 421.04 99.8302C420.824 100.033 420.608 100.11 420.344 100.186C422.504 108.593 425.744 118.499 430.448 127.694C433.52 133.714 439.616 137.244 446.072 136.736C454.736 136.025 467.48 133.663 478.352 126.348C478.352 126.348 483.968 123.325 486.584 120.887C490.16 117.534 487.52 113.419 486.272 112.505Z" fill="#FFD8BD"/>
<path d="M442.568 166.556C442.568 166.556 440.888 188.832 439.28 210.498C437.096 239.937 428.792 313.317 428.792 313.317C428.792 313.317 430.544 316.238 422 314.333C422 314.333 411.536 289.34 409.352 260.587C409.328 260.104 409.28 259.647 409.256 259.164C407.24 229.904 404.096 168.283 404.096 168.283L442.568 166.556Z" fill="#F99F46"/>
<path opacity="0.4" d="M442.712 164.549C442.712 164.549 440.888 188.806 439.28 210.498L409.352 260.587C409.328 260.104 409.28 259.647 409.256 259.164C407.24 229.904 404.096 168.283 404.096 168.283L442.712 164.549Z" fill="#C9833D"/>
<path d="M440.96 165.769L371.192 306.307C371.192 306.307 364.688 309.38 363.848 306.713C363.848 306.713 370.04 242.324 380.888 227.872C387.008 219.718 394.208 195.207 394.544 186.647C394.88 178.088 396.8 159.977 396.8 159.977L440.96 165.769Z" fill="#F99F46"/>
<path d="M383.048 326.119C383.048 326.119 372.92 326.271 369.992 323.223C369.656 322.868 368.528 319.261 368.528 319.236C368.432 318.956 367.928 317.635 365.84 316.899C364.472 316.416 363.32 316.416 362 315.883C361.016 315.476 359.144 314.511 358.232 313.952C355.088 312.022 355.808 310.98 355.808 310.98C355.808 310.98 356.504 310.32 357.416 309.355C357.656 309.101 357.92 308.796 358.184 308.491C359.552 306.967 361.064 305.037 361.448 303.665C361.784 302.497 362.384 301.735 362.984 301.252C363.728 300.643 364.424 300.465 364.424 300.465C364.424 300.465 365.528 305.164 367.712 304.58C371.936 303.437 372.728 303.589 372.872 303.64L372.896 303.665C372.896 303.665 376.352 310.752 377.312 313.292C379.016 317.813 381.224 319.515 382.616 320.988C382.976 321.369 383.216 321.776 383.408 322.207C384.128 323.909 383.6 325.789 383.048 326.119Z" fill="#233862"/>
<path d="M383.048 326.119C383.048 326.119 372.92 326.271 369.992 323.223C369.656 322.868 368.528 319.261 368.528 319.236C368.432 318.956 367.928 317.635 365.84 316.899C364.472 316.416 363.32 316.416 362 315.883C361.016 315.476 359.144 314.511 358.232 313.952C355.088 312.022 355.808 310.98 355.808 310.98C355.808 310.98 356.504 310.32 357.416 309.355C357.656 309.101 357.92 308.796 358.184 308.491C358.52 309.863 359.432 312.276 361.856 313.292C365.312 314.714 369.032 317.153 370.112 319.109C371.192 321.064 371.912 322.842 374.024 323.579C376.136 324.316 381.632 324.519 382.016 324.316C382.328 324.163 382.616 322.715 383.408 322.182C384.128 323.909 383.6 325.789 383.048 326.119Z" fill="#FBB667"/>
<path d="M420.8 326.144H424.976C426.368 325.916 427.424 325.484 428.864 325.281C431.048 324.976 432.056 325.916 432.248 326.144C432.272 326.17 432.296 326.195 432.296 326.195H450.08C450.536 325.509 450.104 323.96 449.672 322.791C449.384 322.004 448.76 321.42 448.016 321.191C446.12 320.607 442.424 320.099 439.016 316.848C437.096 315.019 429.776 310.117 429.776 310.117H429.728C429.56 310.117 428.792 310.371 425.456 313.343C423.728 314.892 420.8 311.158 420.8 311.158C420.8 311.158 420.248 311.641 419.84 312.53C419.504 313.241 419.264 314.206 419.456 315.425C419.72 317.127 418.856 320.277 418.184 322.41C417.776 323.706 417.416 324.62 417.416 324.62C417.416 324.62 417.2 325.662 420.8 326.144Z" fill="#233862"/>
<path d="M420.8 326.195H424.976C426.368 325.966 427.424 325.458 428.864 325.281C431.048 324.976 432.056 325.916 432.248 326.144C432.272 326.17 432.296 326.195 432.296 326.195H450.08C450.536 325.509 450.104 323.96 449.672 322.791C449.12 322.283 448.976 325.001 448.688 325.433C448.4 325.865 434.168 325.585 433.352 324.95C432.536 324.315 430.064 323.223 426.632 324.087C423.656 324.849 419.24 322.893 418.16 322.385C417.752 323.68 417.392 324.595 417.392 324.595C417.392 324.595 417.2 325.738 420.8 326.195Z" fill="#FBB667"/>
<path d="M404.456 66.607C404.456 66.607 421.112 75.2938 430.76 72.068C430.76 72.068 428.384 68.8676 424.256 66.4546C424.496 64.9814 424.688 63.6098 424.832 62.416C425.36 58.0472 425.384 55.558 425.384 55.558L415.16 46.8458L412.88 44.89C412.952 46.9474 412.832 48.8778 412.568 50.6304C412.544 50.7574 412.52 50.9098 412.496 51.0368C410.84 61.527 404.456 66.607 404.456 66.607Z" fill="#FBB667"/>
<path d="M394.928 158.936C394.88 160.054 397.064 161.298 398.024 161.755C402.248 163.762 406.28 165.388 410.432 166.556C413.336 167.369 416.264 167.953 419.36 168.258C428.288 169.223 438.824 167.089 442.448 167.14C442.832 167.14 443.168 166.988 443.456 166.734C443.696 166.531 443.888 154.999 443.696 140.445C443.696 139.886 443.696 139.276 443.648 138.718V138.514C443.6 132.85 443.408 126.881 443.168 120.963C442.64 107.907 441.68 95.2836 440.024 88.2986C438.104 80.0944 433.664 74.6842 429.608 70.6964L426.728 67.6738C426.536 67.496 426.296 67.3944 426.032 67.4452C422.816 68.0802 419.288 68.0294 415.904 66.2514C412.088 64.2702 407.936 62.1112 407.264 62.6192C399.344 68.8676 395.408 87.3588 395.504 108.365C395.504 109.025 395.504 109.685 395.528 110.371C395.552 112.53 395.648 114.74 395.744 116.95C396.608 132.444 395.72 145.88 395.216 153.704C395.096 155.913 394.976 157.717 394.928 158.936Z" fill="#FBB667"/>
<path d="M394.928 158.936C394.88 160.054 397.064 161.298 398.024 161.755C402.248 163.762 406.28 165.388 410.432 166.556C421.928 127.211 408.152 89.086 408.152 89.086L395.528 110.371C395.552 112.53 395.648 114.74 395.744 116.95C396.608 132.444 395.72 145.88 395.216 153.704C395.096 155.913 394.976 157.717 394.928 158.936Z" fill="#FBB667"/>
<path d="M412.64 95.2075C408.512 92.6167 400.232 87.9177 393.392 87.1811C391.904 87.0287 390.968 85.3523 391.568 83.9045C393.728 78.6721 399.848 67.7246 407.288 62.6446C407.984 62.162 408.512 62.5938 409.232 63.0256C411.968 64.6512 417.896 69.4772 418.256 75.1669C418.568 80.2215 416.936 88.9845 415.952 93.7089C415.616 95.2329 413.936 96.0203 412.64 95.2075Z" fill="#FBB667"/>
<path d="M412.4 50.8844C412.4 50.8844 412.424 50.9353 412.472 51.0369C413.12 52.2561 417.512 60.1301 424.784 62.3907C425.312 58.0219 425.336 55.5327 425.336 55.5327L415.112 46.8204C413.768 48.4968 412.856 50.0208 412.52 50.605C412.448 50.8082 412.4 50.8844 412.4 50.8844Z" fill="#FFD8BD"/>
<path d="M428.312 55.304C428.312 55.304 412.4 58.098 410.912 47.5824C409.424 37.0668 406.352 30.3612 416.456 28.126C426.56 25.8908 429.104 29.5992 430.4 32.9774C431.696 36.3556 432.416 54.3134 428.312 55.304Z" fill="#FBB667"/>
<path d="M432.872 26.9068C429.56 25.3066 413.48 17.2294 406.592 24.5954C406.472 23.4778 406.496 22.1316 406.496 22.1316C405.992 23.0968 405.776 24.4938 405.68 25.5098C405.056 24.7224 403.928 24.5954 403.928 24.5954C404.744 25.0018 405.08 25.7892 405.224 26.4496C398.384 37.1938 408.776 48.1412 410.192 49.843C411.656 51.5956 412.496 51.0876 412.496 51.0876C412.496 51.0876 415.088 47.3792 413.84 44.9154C413.84 44.9154 411.728 42.6548 412.952 41.2324C414.176 39.81 414.872 41.969 415.832 41.9182C416.792 41.842 418.52 38.8702 418.64 36.1524C418.76 33.4346 428 37.5748 431.72 36.2794C435.416 34.984 438.68 29.7262 432.872 26.9068Z" fill="#2C3A64"/>
<path d="M395.192 119.82L394.688 116.62C402.056 115.35 408.032 111.59 412.424 105.469C415.736 100.846 418.064 94.7756 418.832 88.832C420.296 77.3258 417.44 70.7726 410.072 68.7914C403.496 67.0388 395.888 72.4744 395.792 72.5252L394.04 69.8582C394.4 69.6042 402.848 63.5082 410.816 65.6418C417.008 67.2928 423.968 72.7538 421.856 89.2638C421.376 93.0738 419.816 100.491 414.848 107.425C409.976 114.257 403.352 118.423 395.192 119.82Z" fill="#233862"/>
<path d="M385.16 71.2298C390.555 71.2298 394.928 66.3513 394.928 60.3332C394.928 54.3152 390.555 49.4366 385.16 49.4366C379.765 49.4366 375.392 54.3152 375.392 60.3332C375.392 66.3513 379.765 71.2298 385.16 71.2298Z" fill="#AFD295"/>
<path d="M378.224 60.6126C378.224 55.3802 382.232 51.1384 387.176 51.1384C387.392 51.1384 387.608 51.1384 387.824 51.1638C387.08 50.9606 386.312 50.8336 385.496 50.8336C380.552 50.8336 376.544 55.0754 376.544 60.3078C376.544 65.3116 380.216 69.401 384.848 69.7566C381.056 68.6898 378.224 65.0068 378.224 60.6126Z" fill="#82B378"/>
<path d="M484.664 107.349H482.096V295.08H484.664V107.349Z" fill="#C0783D"/>
<path d="M484.112 129.497H482.624C481.712 129.497 480.992 128.71 480.992 127.77V107.069C480.992 106.104 481.736 105.342 482.624 105.342H484.112C485.024 105.342 485.744 106.129 485.744 107.069V127.77C485.768 128.71 485.024 129.497 484.112 129.497Z" fill="#233862"/>
<path d="M485.888 296.248H480.824C480.128 296.248 479.552 295.639 479.552 294.902C479.552 294.166 480.128 293.556 480.824 293.556H485.888C486.584 293.556 487.16 294.166 487.16 294.902C487.184 295.639 486.608 296.248 485.888 296.248Z" fill="#233862"/>
<path d="M483.392 301.455C482.936 301.455 482.552 301.1 482.504 300.617L482.096 296.248H484.664L484.28 300.617C484.208 301.1 483.848 301.455 483.392 301.455Z" fill="#C0783D"/>
<path d="M440.029 134.33L438.002 132.661L329.071 280.818L331.097 282.487L440.029 134.33Z" fill="#C0783D"/>
<path d="M426.776 151.468L425.6 150.503C424.88 149.919 424.76 148.827 425.312 148.065L437.312 131.733C437.864 130.971 438.896 130.844 439.616 131.428L440.792 132.393C441.512 132.977 441.632 134.069 441.08 134.831L429.08 151.164C428.528 151.926 427.496 152.053 426.776 151.468Z" fill="#233862"/>
<path d="M331.424 284.234L327.44 280.958C326.888 280.5 326.792 279.662 327.224 279.053C327.656 278.468 328.448 278.367 329.024 278.824L333.008 282.101C333.56 282.558 333.656 283.396 333.224 284.005C332.792 284.59 331.976 284.691 331.424 284.234Z" fill="#233862"/>
<path d="M326.408 286.723C326.048 286.419 325.952 285.885 326.192 285.479L328.4 281.77L330.44 283.447L327.584 286.647C327.296 286.977 326.768 287.003 326.408 286.723Z" fill="#C0783D"/>
<path d="M437.816 141.918C437.528 140.724 434.336 141.181 432.344 140.953C431.624 140.877 431.288 139.988 431.72 139.403L432.704 138.032C431.24 137.727 429.536 137.473 428.84 137.549C428.048 137.651 425.72 138.616 424.064 139.353C424.064 139.327 424.064 139.327 424.064 139.327C424.064 139.327 403.88 123.884 400.304 120.099C397.712 117.382 412.904 95.3598 412.664 95.2074C408.536 92.6166 400.232 87.8922 393.416 87.1556C393.128 87.1556 392.912 87.0794 392.672 86.9778C389.216 94.9026 385.664 104.682 383.672 114.918C382.376 121.598 384.872 128.481 390.104 132.469C397.16 137.829 408.368 144.712 421.112 146.541C421.112 146.541 427.952 149.335 431.456 149.259C436.184 149.106 438.176 143.493 437.816 141.918Z" fill="#FBB667"/>
<path d="M479.912 113.267C479.912 113.267 483.128 110.473 484.4 113.724C485.288 115.985 484.04 117.737 483.2 118.575C482.768 119.007 482.048 118.88 481.784 118.296C481.616 117.89 481.52 117.28 481.712 116.442L478.76 123.198L479.912 113.267Z" fill="#FFD8BD"/>
<path d="M485.768 112.327C485.768 112.327 483.824 112.225 483.632 115.705C483.44 119.185 483.056 124.138 485.84 121.471C488.624 118.829 485.768 112.327 485.768 112.327Z" fill="#FFD8BD"/>
<path d="M341.528 171.675L339.306 170.312L263.239 309.201L265.461 310.564L341.528 171.675Z" fill="#C0783D"/>
<path d="M247.208 179.205C247.544 180.094 249.056 180.882 251.216 181.44C256.064 182.71 264.248 182.888 270.2 180.551C276.608 178.037 281.24 142.274 283.208 123.935C283.904 117.534 284.264 113.267 284.264 113.267C284.264 113.267 280.592 107.171 266.36 109.203C252.152 111.235 250.712 116.315 249.416 125.433C248.168 134.552 246.104 176.31 247.208 179.205Z" fill="#F99F46"/>
<path d="M260.216 97.1886L287.624 102.091L285.512 112.048L260.408 118.321L260.216 97.1886Z" fill="#AA3E39"/>
<path d="M258.008 118.677C263.403 118.677 267.776 113.798 267.776 107.78C267.776 101.762 263.403 96.8838 258.008 96.8838C252.613 96.8838 248.24 101.762 248.24 107.78C248.24 113.798 252.613 118.677 258.008 118.677Z" fill="#B84C42"/>
<path d="M251.072 108.06C251.072 102.827 255.08 98.5856 260.024 98.5856C260.24 98.5856 260.456 98.5856 260.672 98.611C259.928 98.4078 259.16 98.2808 258.344 98.2808C253.4 98.2808 249.392 102.523 249.392 107.755C249.392 112.759 253.064 116.848 257.696 117.204C253.88 116.137 251.072 112.454 251.072 108.06Z" fill="#AA3E39"/>
<path d="M339.032 179.942C338.912 178.215 336.536 176.716 335.024 176.259C333.824 175.903 332.24 174.1 331.664 173.414C326.264 166.175 318.272 151.418 316.256 148.852C315.536 147.912 313.304 143.163 310.4 137.016C308.456 132.876 306.224 128.151 303.944 123.528C300.464 124.875 296.264 126.703 292.64 128.888C294.824 132.571 297.728 137.498 300.272 141.918C302.624 145.982 304.688 149.64 305.624 151.468C308.504 157.133 328.232 176.284 328.232 176.284L329.336 177.453C329.552 177.681 329.744 177.935 329.912 178.189C330.536 179.154 331.664 181.11 333.44 182.812C334.52 183.853 335.216 184.514 337.208 184.234C339.752 183.93 339.152 181.694 339.032 179.942Z" fill="#E8945B"/>
<path d="M303.272 119.185C303.272 119.185 313.112 139.988 314.528 143.239C314.528 143.239 309.32 154.186 305.936 154.135C302.528 154.085 303.272 119.185 303.272 119.185Z" fill="#233862"/>
<path d="M278.864 72.6776C278.72 72.1188 276.776 65.7434 267.368 67.8516C267.368 67.8516 272.072 67.2166 273.368 69.147C273.368 69.147 269.624 67.3436 267.296 68.8422C264.968 70.3662 264.584 75.4462 264.92 76.9956C265.28 78.545 267.848 83.1678 269.552 83.1678C270.2 83.1678 270.896 82.9392 271.496 82.6598C271.232 83.4726 270.992 84.3616 270.8 85.3522C268.976 94.3946 274.664 101.253 277.592 99.5762C279.464 98.484 280.904 101.964 280.904 101.964L296.528 80.0436C296.552 80.0182 285.68 66.1752 278.864 72.6776Z" fill="#233862"/>
<path d="M303.416 181.009C296.312 157.006 304.088 151.799 303.368 139.784C302.624 127.77 293.84 114.867 293.84 114.867C293.84 114.867 293.384 114.816 292.64 114.74C292.04 114.41 291.896 111.794 291.896 109.05C291.896 105.748 292.136 102.243 292.136 102.243L281.6 100.033L280.976 99.9064C281 107.679 279.08 112.759 277.664 113.953C276.344 114.105 270.728 114.867 267.272 116.391C265.976 116.975 264.968 117.661 264.632 118.448C261.728 125.179 258.848 142.172 256.832 154.288C255.704 161.044 253.208 169.579 255.056 171.382L265.976 166.988C266.384 164.93 267.08 160.689 268.256 156.066C268.424 155.38 268.208 154.516 268.376 153.805C270.44 159.749 271.496 162.492 271.448 165.057C271.376 168.715 269.024 171.992 264.128 183.599C261.464 190.051 310.664 205.52 303.416 181.009Z" fill="#FFB27D"/>
<path d="M292.136 102.243C292.136 102.243 291.896 105.748 291.896 109.05C285.992 108.873 282.896 103.183 281.6 100.033L292.136 102.243Z" fill="#E8945B"/>
<path d="M280.52 98.8396C280.52 98.8396 277.424 93.6834 276.68 89.2638C276.152 86.1142 277.664 74.4302 288.776 76.1066C288.776 76.1066 291.992 76.4368 295.04 78.6212C297.44 80.3484 300.92 84.0568 297.032 94.2676L296.024 97.722L280.52 98.8396Z" fill="#233862"/>
<path d="M294.104 105.367C294.104 105.367 280.16 105.621 280.136 96.4266C280.136 87.2318 278.312 81.0596 287.216 80.5262C296.12 79.9928 297.848 83.498 298.568 86.546C299.288 89.6194 297.728 105.088 294.104 105.367Z" fill="#FFB27D"/>
<path d="M313.568 319.667L309.104 320.836C309.104 320.836 302.072 310.625 296.216 296.731C292.52 287.917 289.28 277.859 288.632 268.486C288.344 264.244 288.56 260.155 289.52 256.396C289.52 256.396 288.272 247.506 286.568 235.619C284.672 222.411 282.2 205.545 280.28 193.124L281.456 192.769L306.44 184.92C306.44 184.92 311.336 205.164 309.08 236.914C308.624 243.416 307.856 250.427 306.704 257.818C304.712 270.467 305.528 283.193 307.184 293.759C309.512 308.872 313.568 319.667 313.568 319.667Z" fill="#B84C42"/>
<path d="M309.056 236.889L289.472 275.141C288.92 271.636 287.216 265.413 289.52 256.396C289.52 256.396 288.272 247.506 286.568 235.619C284.672 222.411 282.2 205.545 280.28 193.124L281.456 192.769L306.44 184.92C306.392 184.895 311.288 205.139 309.056 236.889Z" fill="#AA3E39"/>
<path d="M287.144 258.504C286.256 260.257 277.472 271.433 268.664 283.802C267.92 284.869 267.128 286.012 266.312 287.206C261.128 294.953 255.128 305.037 251.552 309.964C248.312 314.435 245.384 308.847 247.016 304.834C249.608 298.534 251.792 287.536 254.288 279.434C254.864 277.554 255.464 275.852 256.088 274.379C258.776 268.004 264.032 260.993 270.416 254.084C271.52 252.891 261.152 224.239 261.848 202.141C262.112 193.378 263.264 185.682 265.904 180.983L292.136 182.355C292.184 182.329 295.76 241.359 287.144 258.504Z" fill="#B84C42"/>
<path d="M298.184 81.4406C296.024 78.672 294.416 79.2816 293.48 80.1198C285.992 75.7256 276.608 80.4754 276.608 80.4754C275.672 87.0794 275.528 92.6166 275.528 92.6166C275.528 92.6166 278.072 94.2676 283.928 92.6928C285.728 92.2102 287.312 90.864 288.68 89.2384C286.304 93.4548 283.088 96.4774 283.088 96.4774C290.096 93.0484 292.904 82.7614 293.168 81.6692C294.008 82.482 295.688 84.2346 296.216 85.9618C296.912 88.2986 297.224 93.1246 298.544 92.9468C298.52 92.9214 301.4 85.6062 298.184 81.4406Z" fill="#233862"/>
<path d="M260.864 192.032C260.816 192.972 260.864 193.709 261.032 194.242C261.584 196.096 263.504 196.96 268.136 196.452C270.968 196.147 272.24 191.118 272.792 186.825C274.496 192.947 276.872 196.401 279.944 197.112C284.432 198.179 307.112 201.075 308.6 189.695C310.232 177.148 305.336 154.948 305.072 142.959C305.744 138.718 305.96 135.035 305.888 131.86C305.696 123.325 303.344 118.55 301.52 116.62C301.016 116.213 300.488 115.934 298.424 115.553C297.368 115.375 295.904 115.146 293.816 114.842C293.816 114.842 292.928 114.715 292.952 114.765C293.336 115.502 297.464 121.928 297.056 124.036C296.648 126.246 280.784 125.941 279.512 124.722C278.264 123.503 274.976 114.308 274.976 114.308C274.976 114.308 268.52 115.045 265.376 117.483C265.376 117.483 265.376 117.509 265.4 117.534C265.016 117.813 264.728 118.118 264.56 118.448C261.2 125.23 257.84 142.35 255.464 154.542C261.2 157.895 266.192 156.879 267.752 156.447C265.784 170.518 261.176 185.631 260.864 192.032Z" fill="#2B478B"/>
<path d="M293.84 114.867C293.84 114.867 293.84 114.892 293.864 114.918C294.488 115.959 304.16 132.317 305.072 142.959C305.744 138.718 305.96 135.035 305.888 131.86C304.64 127.846 299.072 118.855 296.168 115.197C295.976 114.943 293.84 114.867 293.84 114.867Z" fill="#F99F46"/>
<path d="M296.216 296.706C302.072 310.625 309.104 320.81 309.104 320.81L313.592 319.642C313.592 319.642 309.536 308.872 307.184 293.734C305.744 294.851 302.72 296.248 296.216 296.706Z" fill="#FFB27D"/>
<path d="M305.552 326.17H308.624C309.656 325.992 310.4 325.687 311.456 325.535C313.064 325.306 313.784 326.017 313.928 326.17C313.952 326.195 313.952 326.195 313.952 326.195H326.984C327.32 325.712 327.008 324.544 326.696 323.706C326.48 323.122 326.024 322.69 325.472 322.537C324.08 322.106 321.368 321.725 318.872 319.337C317.48 317.991 312.104 314.409 312.104 314.409H312.08C311.96 314.409 311.408 314.587 308.96 316.772C307.688 317.889 305.552 315.171 305.552 315.171C305.552 315.171 305.144 315.527 304.856 316.187C304.616 316.695 304.448 317.432 304.568 318.296C304.76 319.54 304.136 321.852 303.632 323.401C303.32 324.341 303.08 325.027 303.08 325.027C303.08 325.027 302.912 325.814 305.552 326.17Z" fill="#233862"/>
<path d="M305.552 326.17H308.624C309.656 325.992 310.4 325.687 311.456 325.535C313.064 325.306 313.784 326.017 313.928 326.17C313.952 326.195 313.952 326.195 313.952 326.195H326.984C327.32 325.712 327.008 324.544 326.696 323.706C326.312 323.325 326.192 325.331 325.976 325.636C325.76 325.941 315.344 325.763 314.744 325.281C314.144 324.823 312.344 324.011 309.824 324.646C307.64 325.204 304.424 323.782 303.608 323.401C303.296 324.341 303.056 325.027 303.056 325.027C303.056 325.027 302.912 325.814 305.552 326.17Z" fill="#466AA5"/>
<path d="M260.864 192.032C263.984 190.94 267.968 187.994 272.768 181.44C285.464 164.067 273.848 143.645 272.288 143.264C270.728 142.883 267.8 156.472 267.8 156.472C267.488 159.419 266.792 162.517 266.216 165.54C266.168 165.845 266.072 166.124 266.048 166.429C265.52 169.934 265.856 173.287 265.136 176.538C265.112 176.614 263.768 176.843 263.768 176.894C262.28 183.295 261.032 188.806 260.864 192.032Z" fill="#233862"/>
<path d="M290.096 99.9572C290.096 99.9572 290.36 101.1 293.024 100.872C293.024 100.872 295.256 100.694 295.184 99.4492C295.184 99.4492 293 98.5856 290.096 99.9572Z" fill="white"/>
<path d="M266.312 287.181C261.128 294.928 255.128 305.011 251.552 309.939C248.312 314.409 245.384 308.821 247.016 304.808C249.608 298.509 251.792 287.511 254.288 279.408C255.992 282.126 259.448 285.606 266.312 287.181Z" fill="#FFB27D"/>
<path d="M258.512 326.195C258.512 326.195 250.88 325.179 248.96 322.563C248.744 322.258 248.24 319.413 248.24 319.388C248.192 319.159 247.952 318.118 246.44 317.33C245.456 316.822 244.592 316.695 243.656 316.137C242.96 315.73 241.64 314.79 241.016 314.257C238.856 312.454 239.48 311.768 239.48 311.768C239.48 311.768 240.056 311.336 240.848 310.726C241.064 310.549 241.28 310.371 241.52 310.168C242.696 309.177 244.016 307.882 244.448 306.891C244.808 306.053 245.36 305.545 245.84 305.24C246.464 304.859 246.992 304.808 246.992 304.808C246.992 304.808 247.352 308.466 249.056 308.263C252.344 307.882 252.944 308.059 253.04 308.136L253.064 308.161C253.064 308.161 254.96 313.901 255.44 315.908C256.28 319.489 257.768 321.013 258.656 322.283C258.872 322.614 259.04 322.944 259.112 323.274C259.544 324.646 258.968 326.017 258.512 326.195Z" fill="#233862"/>
<path d="M258.512 326.195C258.512 326.195 250.88 325.179 248.96 322.563C248.744 322.258 248.24 319.413 248.24 319.388C248.192 319.159 247.952 318.118 246.44 317.33C245.456 316.822 244.592 316.695 243.656 316.137C242.96 315.73 241.64 314.79 241.016 314.257C238.856 312.454 239.48 311.768 239.48 311.768C239.48 311.768 240.056 311.336 240.848 310.726C241.064 310.549 241.28 310.371 241.52 310.168C241.64 311.234 242.072 313.165 243.8 314.181C246.272 315.629 248.816 317.889 249.44 319.489C250.064 321.09 250.424 322.487 251.936 323.299C253.448 324.087 257.576 324.849 257.888 324.747C258.128 324.671 258.512 323.604 259.16 323.299C259.544 324.646 258.968 326.017 258.512 326.195Z" fill="#466AA5"/>
<path d="M270.344 115.146L265.712 117.001C269.072 120.582 274.712 127.872 277.088 138.438C280.592 153.983 267.416 159.038 267.416 159.038L266.264 165.311L266.24 165.515C266.24 165.515 282.704 161.324 281.744 141.791C281.048 128.278 274.184 119.134 270.344 115.146Z" fill="#F99F46"/>
<path d="M330.56 190.534L329.264 189.746C328.472 189.264 328.208 188.197 328.664 187.384L338.48 169.477C338.936 168.639 339.944 168.359 340.712 168.842L342.008 169.629C342.8 170.112 343.064 171.179 342.608 171.992L332.792 189.899C332.336 190.737 331.328 191.016 330.56 190.534Z" fill="#233862"/>
<path d="M265.952 312.225L261.584 309.533C260.984 309.152 260.768 308.339 261.128 307.678C261.488 307.043 262.256 306.815 262.88 307.196L267.248 309.888C267.848 310.269 268.064 311.082 267.704 311.742C267.344 312.377 266.576 312.606 265.952 312.225Z" fill="#233862"/>
<path d="M261.32 315.4C260.936 315.146 260.768 314.638 260.96 314.206L262.664 310.218L264.896 311.59L262.496 315.146C262.208 315.527 261.704 315.654 261.32 315.4Z" fill="#C0783D"/>
<path d="M298.681 185.15L297.184 182.942L173.944 276.514L175.441 278.722L298.681 185.15Z" fill="#C0783D"/>
<path d="M281.36 197.62L280.496 196.325C279.968 195.537 280.136 194.471 280.88 193.912L296.768 181.847C297.512 181.288 298.52 181.466 299.048 182.253L299.912 183.549C300.44 184.336 300.272 185.403 299.528 185.962L283.64 198.027C282.92 198.56 281.888 198.382 281.36 197.62Z" fill="#233862"/>
<path d="M175.256 280.5L172.304 276.157C171.896 275.547 172.016 274.709 172.592 274.277C173.168 273.846 173.96 273.973 174.368 274.582L177.32 278.926C177.728 279.535 177.608 280.373 177.032 280.805C176.456 281.237 175.664 281.085 175.256 280.5Z" fill="#233862"/>
<path d="M169.784 281.364C169.52 280.983 169.568 280.424 169.928 280.119L173.048 277.224L174.536 279.434L170.96 281.643C170.552 281.872 170.048 281.745 169.784 281.364Z" fill="#C0783D"/>
<path d="M260.816 161.806L255.08 171.382C264.992 178.621 276.272 182.609 283.568 187.613C284.264 188.146 286.4 189.213 286.856 190.457C287.432 192.007 288.608 193.988 290.24 193.963C291.872 193.937 294.344 192.718 294.68 190.991C294.824 190.229 294.176 190.508 292.736 189.01C291.536 187.765 291.032 186.978 290.984 186.216C290.432 185.758 288.368 184.666 288.368 184.666C287.096 183.879 286.28 183.345 286.28 183.345C286.232 183.371 267.248 167.724 260.816 161.806Z" fill="#FFB27D"/>
<path d="M335.984 179.789C336.032 179.332 336.104 178.85 336.176 178.418C336.464 176.97 333.944 175.675 333.944 175.675L332.504 177.834C332.504 177.834 334.832 179.307 334.784 180.577C334.76 180.983 334.88 181.263 335.048 181.44C334.544 182.71 334.376 184.133 335.912 184.26C338 184.438 338.792 179.002 338.792 179.002C338.792 179.002 336.944 178.926 335.984 179.789Z" fill="#E8945B"/>
<path d="M266.048 166.429C266.048 166.429 267.416 162.035 267.824 156.472C267.8 156.472 264.92 163.254 266.048 166.429Z" fill="#FFB27D"/>
</svg>
